<svg width="1176" height="245" viewBox="0 0 1176 245" fill="none" xmlns="http://www.w3.org/2000/svg">
<path d="M879.13 104.388C886.03 105.264 893.054 106.823 900.299 107.09C905.881 107.298 911.008 107.135 916.653 107.551C932.443 108.724 948.891 109.347 964.634 107.729C970.404 107.135 976.409 106.215 982.305 106.007C989.627 105.739 996.997 106.378 1004.35 106.185C1015.25 105.888 1026.88 103.839 1037.81 104.344C1044.65 104.656 1054.03 105.324 1060.41 106.229C1069.05 107.462 1074.52 107.387 1083.6 107.521C1090.9 107.64 1098.59 106.838 1105.85 107.298C1112.56 107.714 1118.66 107.952 1125.62 107.952H1176V237H0V107.952C0 106.764 45.817 109.332 49.0784 109.362C62.1242 109.466 74.2134 108.516 86.8045 107.283C97.6237 106.229 109.65 105.383 120.736 104.953C128.106 104.67 135.381 105.413 142.641 105.071C152.802 104.611 162.084 103.067 172.511 102.919C183.973 102.755 195.326 104.091 206.819 104.181C217.058 104.255 226.984 104.997 237.129 105.012C242.632 105.012 242.758 105.249 246.835 106.482C251.382 107.848 254.33 107.684 260.021 107.343C269.398 106.779 278.32 107.848 287.775 107.135C298.092 106.363 310.495 107.194 321.22 106.987C337.496 106.675 351.906 106.66 367.586 104.388C378.735 102.77 391.577 100.395 403.431 100.023C412.917 99.7265 420.475 102.34 429.491 103.097C440.326 104.017 451.176 104.67 462.184 105.19C471.074 105.606 478.742 107.18 487.789 107.298C497.464 107.417 505.79 109.362 515.699 108.946C520.372 108.753 524.778 108.145 529.608 108.323C534.547 108.501 539.063 109.243 544.174 109.184C550.901 109.095 557.471 108.189 564.245 108.367C571.724 108.56 578.467 108.991 585.93 108.442C590.964 108.07 595.918 107.239 600.999 107.031C613.339 106.526 626.008 108.724 638.725 108.397C659.077 107.877 678.819 106.408 699.297 106.883C715.776 107.254 730.986 106.289 747.246 105.873C754.067 105.695 758.802 106.615 764.917 107.58C770.719 108.486 775.878 108.397 781.946 108.145C788.516 107.877 795.368 107.313 801.985 107.551C807.238 107.744 811.926 108.412 817.289 108.249C828.735 107.907 839.93 106.081 851.377 105.502C860.393 105.042 870.303 103.319 879.13 104.433V104.388Z" fill="#404041"/>
<path d="M89.4379 119.308C91.8019 116.255 93.4613 112.983 96.7802 110.839C101.07 108.068 106.017 108.021 110.745 106.674C109.68 104.263 106.893 100.365 107.52 97.3595C108.396 93.1952 111.762 93.6335 115.394 92.7568C113.109 90.1268 111.747 85.2737 113.594 81.9548C116.161 77.3522 119.355 79.8883 123.269 80.2171C120.419 70.6361 127.496 67.5833 134.368 72.8122C134.337 65.2977 137.358 52.3665 147.127 61.0865C152.184 53.4311 156.52 68.6479 160.935 68.5853C168.309 68.4757 168.418 55.8889 175.166 64.922C183.792 58.1902 182.978 63.1529 189.255 68.3191C192.856 61.0082 206.241 70.6518 201.952 73.8611C204.754 71.1214 208.652 72.9374 210.202 76.178C213.098 82.2992 208.073 81.8139 215.493 82.6436C220.018 83.1446 223.697 85.9938 225.967 90.2207C227.548 93.1326 227.219 99.332 231.869 98.9563C226.014 101.899 220.613 108.6 216.73 113.86C212.55 119.512 210.906 126.337 204.942 130.658C200.918 133.57 194.86 135.511 190.022 136.92C183.948 138.673 180.394 136.028 174.649 135.605C167.745 135.104 162.438 140.599 155.675 140.834C147.706 141.116 141.272 135.605 135.855 130.47" fill="#404041"/>
<path d="M1018.45 124.286C1017.54 119.48 1017.6 112.482 1023.47 111.167C1021.8 107.379 1019.39 81.7669 1026.37 83.9273C1027.2 80.8746 1026.24 72.7809 1030.27 71.6067C1034.93 70.2291 1037.15 77.5557 1036.97 80.8433C1042.52 78.4324 1042.67 86.1973 1041.52 90.0172C1046.02 90.0172 1044.64 94.5102 1048.02 95.4339C1051.21 96.2949 1052.01 90.7686 1055.82 94.4946C1055.02 87.1836 1063.27 86.5104 1062.45 93.1952C1065.44 88.2482 1071.14 95.0738 1068 99.332C1070.66 100.725 1071.6 103.59 1071.16 106.502C1073.63 106.158 1076.29 106.815 1078.08 108.443C1080.64 106.627 1083.65 104.42 1086.73 104.013C1086.8 104.811 1086.89 105.657 1086.94 106.455C1089.88 106.048 1091.52 103.34 1094.8 103.214C1095.3 103.199 1098.77 106.142 1099.88 106.471C1101.56 100.005 1109.81 107.285 1107.34 112.31C1111.42 103.496 1116.81 118.4 1113.29 124.787C1113.07 124.145 1113.29 123.644 1113.14 123.003" fill="#404041"/>
<path d="M1086.62 61.65H1077V127.417H1086.62V61.65Z" fill="#404041"/>
<path d="M1111.56 61.65H1101.94V127.417H1111.56V61.65Z" fill="#404041"/>
<path d="M1136.52 61.65H1126.89V127.417H1136.52V61.65Z" fill="#404041"/>
<path d="M1161.47 61.65H1151.84V127.417H1161.47V61.65Z" fill="#404041"/>
<path d="M1165.76 70.1508H1070.16V74.9569H1165.76V70.1508Z" fill="#404041"/>
<path d="M29.7918 61.65H20.1639V127.417H29.7918V61.65Z" fill="#404041"/>
<path d="M54.7461 61.65H45.1182V127.417H54.7461V61.65Z" fill="#404041"/>
<path d="M79.7004 61.65H70.0725V127.417H79.7004V61.65Z" fill="#404041"/>
<path d="M104.655 61.65H95.0268V127.417H104.655V61.65Z" fill="#404041"/>
<path d="M108.929 70.1508H13.3225V74.9569H108.929V70.1508Z" fill="#404041"/>
<path d="M185.013 44.1632C186.782 42.4725 187.564 38.4961 186.813 36.1634C186.234 37.6977 185.326 39.3728 184.058 40.453C182.617 41.6741 181.052 41.7054 179.486 41.8619C178.751 41.6584 177.984 41.5332 177.279 41.3766C175.04 40.8756 171.706 39.8737 169.483 40.8287C169.013 41.0322 168.575 41.314 168.168 41.6428C167.134 41.6271 166.164 41.3923 165.162 40.453C163.831 39.2005 163.737 36.8836 162.641 35.819C161.295 36.8053 160.888 38.2769 160.951 39.8111C161.029 41.6897 162.14 42.6603 162.626 44.3354C157.491 42.2846 156.051 48.4527 152.732 50.5505C156.019 52.7423 160.669 52.4761 164.191 50.5349C163.8 53.4311 162.72 57.11 161.248 59.6462C159.964 61.8536 157.413 62.3702 155.096 62.8398C152.81 63.3095 150.493 63.9357 148.176 64.3114C144.513 64.9063 141.069 64.468 137.421 64.4836C132.13 64.4993 127.464 64.1392 122.282 63.059C117.539 62.0727 112.842 60.836 108.021 60.4446C104.858 60.1941 101.633 60.6951 98.5649 61.5561C96.7332 62.0727 94.8703 62.4641 93.2108 63.4034C91.661 64.2801 90.9721 64.2958 89.3284 64.5619C85.7433 65.1568 84.3344 68.8201 82.1583 71.1997C79.5282 74.0489 74.2681 73.4071 73.1409 78.7611C72.6869 80.9216 73.501 84.4127 74.9256 85.9155C75.1291 83.1915 77.54 79.4813 80.671 79.7161C80.9528 84.8823 81.579 90.2364 82.8315 95.1991C83.9743 99.7234 85.0075 102.823 82.8628 107.332C81.626 109.931 79.8726 111.089 77.8218 112.874C75.5988 114.799 76.0528 115.926 76.6007 118.557C77.2895 121.813 77.7435 125.132 77.587 128.529C77.4461 131.613 76.0371 134.979 76.0058 137.859C75.9902 139.66 77.8375 142.258 78.9333 144.121C79.9352 145.844 80.2014 145.859 82.487 146.485C83.896 146.877 85.5241 147.237 86.9331 147.472C87.1053 144.732 84.0212 142.18 82.988 139.628C81.579 136.153 82.2209 132.975 82.2679 129.296C82.2992 126.713 81.4225 122.267 82.5653 120.2C83.395 118.682 86.1973 117.022 87.4341 115.676C88.6082 114.408 89.6728 112.639 91.0974 111.794C91.4105 116.318 91.7079 117.539 94.5259 120.592C96.4514 122.658 99.9426 125.711 100.553 128.466C100.835 129.719 99.9269 131.738 100.522 133.163C101.211 134.838 101.524 134.165 102.62 135.261C103.747 136.388 104.608 137.953 106.252 138.407C107.942 138.861 111.308 138.486 113.218 138.407C112.013 134.603 108.944 131.19 107.254 127.417C105.641 123.817 102.698 120.905 101.211 117.148C99.2537 112.201 102.04 108.725 104.811 104.843C106.706 102.181 106.784 103.606 109.367 105.782C111.95 107.942 114.095 108.85 117.351 109.586C125.304 111.386 132.944 109.304 140.395 106.643C141.757 106.158 143.495 105.328 144.982 105.484C145.452 106.439 144.935 108.036 144.998 109.132C145.108 110.948 145.609 112.811 146.078 114.549C146.924 117.586 147.378 120.263 147.378 123.488C147.378 127.026 147.659 130.517 147.659 134.055C147.659 136.435 147.205 138.47 147.096 140.787C146.986 143.166 146.094 145.233 145.875 147.519C145.75 148.771 146.188 149.992 147.112 151.025C147.597 151.573 148.082 151.714 148.614 152.106C149.037 152.419 149.538 153.029 150.039 153.295C151.338 154 154.689 154 156.019 153.436C157.663 152.747 156.473 151.683 155.769 150.477C154.595 148.442 153.045 147.174 152.716 144.701C152.419 142.446 152.434 139.988 152.544 137.718C152.685 134.509 153.796 130.799 153.217 127.668C152.325 122.924 153.906 118.619 154.814 114.017C156.16 115.426 155.738 119.981 155.628 121.969C155.55 123.457 154.955 125.022 154.923 126.478C154.877 128.404 155.972 130.126 155.91 132.177C155.816 134.681 155.597 137.218 155.284 139.691C155.08 141.335 154.986 141.773 156.019 143.073C156.755 143.996 157.507 145.311 158.555 145.906C159.714 146.564 161.984 146.501 163.283 146.423C165.272 146.298 164.818 145.953 164.16 144.685C162.281 141.131 160.935 137.233 160.935 133.116C160.935 131.535 160.387 129.593 160.653 128.044C160.904 126.509 161.655 125.32 161.64 123.644C161.624 121.594 161.264 119.652 161.358 117.57C161.436 115.88 160.904 113.938 161.561 112.326C162.36 110.369 165.005 108.459 166.587 107.175C168.606 105.563 170.798 104.404 171.862 101.915C173.193 98.7997 173.24 95.3713 174.352 92.1933C175.025 90.252 175.432 88.5143 175.604 86.4791C175.87 83.3481 175.917 80.1544 176.293 77.0234C176.575 74.6751 175.541 72.2329 176.011 69.9003C176.105 69.4307 176.246 69.0862 176.434 68.8201C177.248 69.4933 178.187 69.9473 179.346 69.9942C181.944 70.1038 184.903 68.1313 185.075 65.376C185.216 63.4034 184.214 61.5092 183.948 59.5523C183.792 58.4094 183.776 57.2823 183.823 56.1394C183.87 55.4976 183.948 54.8557 184.089 54.1982C184.324 53.0241 184.527 51.7247 184.59 50.4096C186.046 50.8167 187.58 50.8636 189.349 50.3627C191.165 49.8461 192.903 47.4821 194.813 47.6543C193.185 44.492 188.191 42.4568 184.95 44.2415L185.013 44.1632Z" fill="#222222"/>
<path d="M1062.17 130.082C1060.73 126.137 1059.98 121.718 1059.36 117.549C1058.96 114.803 1060.14 111.68 1059.68 109.129C1059.26 106.828 1057.49 104.472 1056.88 101.977C1055.72 97.2365 1057.54 93.9185 1059.11 89.513C1060.82 84.7172 1061.06 80.3117 1060.09 75.3485C1058.89 69.1586 1056.53 63.8469 1053.57 58.5213C1058.09 57.9636 1061.94 54.9662 1062.26 51.6203C1062.7 46.8523 1057.67 42.2098 1053.12 42.4747C1053.89 45.2072 1055.83 47.5633 1053.95 50.4771C1053.1 51.8015 1051.78 52.3871 1050.42 52.9308C1048.99 50.3237 1047.98 49.0272 1043.92 48.4416C1036.88 47.4239 1030.27 47.3263 1023.16 47.3682C1012.38 47.4518 1000.4 50.8117 989.757 47.9676C984.947 46.685 981.067 45.4861 976.008 45.0121C970.533 44.4962 965.072 45.2491 959.584 44.7193C955.093 44.2732 950.741 44.4405 946.445 42.7117C943.479 41.5128 939.141 41.0248 936.757 38.7942C934.817 36.9957 935.246 33.2734 936.494 31.2101C937.297 29.8717 938.628 28.7424 939.612 27.5714C940.721 26.2609 942.107 25.0061 943.548 24.0302C943.964 23.7514 944.99 23.3611 944.976 22.7337C944.948 21.2977 940.194 23.1519 939.543 23.4447C937.006 24.6158 934.706 26.3863 932.821 28.4357C931.573 29.788 930.811 32.2836 929.411 33.371C927.443 34.9045 926.903 32.5345 926.93 30.9452C926.972 28.4776 927.457 26.1215 927.679 23.6678C927.873 21.5347 928.178 17.9379 927.18 16C924.63 16.3207 923.244 22.413 922.925 24.4206C922.551 26.7767 922.121 29.091 921.816 31.4471C921.386 34.6815 921.761 39.5052 918.185 41.0527C916.286 41.8752 912.835 42.4329 910.714 42.7675C913.029 44.3986 915.468 44.7053 915.344 47.3124C915.247 49.5709 913.736 53.2375 912.974 55.3845C912.073 57.9078 910.202 59.4275 908.608 61.6999C906.834 64.2372 907.915 66.3006 907 69.1028C908.358 70.2599 909.744 72.4487 911.241 73.1319C913.292 74.052 916.743 71.5425 918.323 72.6857C919.668 73.6616 918.822 77.6768 919.446 79.2382C920.624 82.1659 923.354 84.3547 924.671 87.1987C925.461 82.9048 929.37 80.5347 929.536 76.0038C929.647 72.8809 928.025 69.6744 929.009 66.6909C931.102 67.9178 933.652 66.677 936.022 67.388C939.972 68.587 942.301 71.2498 945.253 73.9265C947.831 76.2687 948.843 78.7502 950.963 81.5385C952.917 84.1037 955.44 86.1531 957.879 88.4395C960.97 91.3254 961.594 95.0338 964.116 98.2264C965.225 99.6345 967.304 101.809 968.759 102.771C969.674 103.371 971.129 103.357 972.127 104.193C978.364 109.449 979.015 123.209 976.701 130.445C975.883 133.024 969.646 138.907 970.658 141.375C971.808 144.177 978.904 141.347 981.205 142.184C983.048 139.019 983.076 135.994 985.71 133.164C989.646 128.939 987.082 125.133 985.973 119.794C985.391 116.964 985.612 114.384 985.848 111.513C985.973 109.937 985.737 103.454 986.971 102.799C988.232 102.13 994.649 104.472 996.146 104.849C999.722 105.741 1003.02 106.996 1006.75 107.149C1011.38 107.344 1016.69 107.177 1021.26 106.285C1025.75 105.406 1029.09 102.785 1032.78 100.387C1033.87 103.887 1034.2 107.874 1036.13 111.039C1037.38 113.088 1039.65 113.869 1040.97 115.779C1043.3 119.166 1042.44 126.681 1041.74 130.57C1040.89 135.408 1035.63 136.802 1033.89 140.929C1032.4 144.414 1036.19 143.201 1038.46 143.09C1041.59 142.923 1042.8 144.121 1044.6 141.514C1046.24 139.144 1048.85 136.677 1049.26 133.888C1049.74 130.598 1047.87 126.486 1049.96 123.642C1051.38 126.109 1053.01 130.501 1053.04 133.331C1053.08 136.523 1049.66 138.684 1049.23 141.821C1048.88 144.331 1050.46 143.773 1052.85 143.954C1057.35 144.303 1057 142.658 1059.8 139.214C1063.07 135.199 1063.82 134.767 1062.1 130.082H1062.17Z" fill="#222222"/>
<path d="M262.005 81.1407C258.78 81.1407 254.772 80.2014 251.892 81.5947C249.575 82.7062 248.275 84.9136 246.224 86.4008C243.453 88.4047 241.888 88.7022 241.121 92.3185C240.62 94.6198 242.264 97.5004 243.813 99.5355C246.631 103.246 250.232 103.105 254.459 103.324C254.709 108.475 253.848 112.686 255.477 117.836C256.979 122.549 260.596 125.805 261.551 130.799C262.099 133.695 262.193 136.623 262.772 139.534C263.429 142.822 261.692 142.196 259.563 144.012C258.42 144.998 257.715 146.595 258.936 147.613C260.486 148.912 263.195 147.393 264.854 147.409C267.234 147.409 269.065 148.959 271.163 147.409C272.713 146.266 272.055 146.157 274.028 145.937C275.703 145.75 277.441 145.937 279.1 145.577C280.227 145.343 281.214 144.732 282.341 144.575C282.09 145.718 281.339 147.91 282.45 148.63C282.701 148.787 284.172 148.521 284.47 148.521C285.879 148.521 287.319 148.693 288.728 148.834C290.701 149.021 297.824 149.742 298.638 148.521C299.561 147.127 297.307 145.28 297.245 143.934C297.213 142.947 298.09 141.366 298.747 140.599C301.503 137.39 305.683 136.231 306.371 131.347C306.81 128.31 304.634 122.924 300.689 124.396C303.193 118.494 300.438 110.494 296.399 105.907C290.575 99.3007 283.327 96.1697 274.858 94.2754C274.701 92.0837 274.905 89.9702 274.247 87.8255C278.458 86.62 282.67 86.0721 286.035 82.9724C289.746 79.5439 292 74.6438 294.755 70.5422C290.372 68.2095 284.955 69.9629 281.088 71.9355C284.501 68.4131 286.349 63.0433 285.785 58.1276C283.452 59.2078 280.854 59.6149 278.505 60.789C274.451 62.8242 271.226 65.8613 268.94 69.8064C267.249 72.7026 266.373 82.1426 262.036 81.0781L262.005 81.1407Z" fill="#222222"/>
<path d="M831.023 77.493C832.87 83.489 824.463 85.0858 820.565 85.8372C815.399 86.8235 812.174 87.7002 808.542 91.8645C803.157 98.0483 799.462 104.436 799.493 112.827C799.509 118.384 801.983 125.226 804.566 130.173C805.568 132.114 807.337 134.212 806.272 136.325C805.662 137.531 802.515 138.846 803.548 140.99C804.394 142.775 807.712 141.82 809.2 141.883C810.64 141.945 813.771 143.01 815.133 142.321C816.73 141.523 815.728 139.863 817.559 140.255C818.483 140.458 818.702 141.491 819.532 141.836C820.111 142.086 821.458 142.164 822.052 142.274C823.994 142.634 825.841 143.057 827.876 142.994C829.066 142.963 831.821 143.542 832.729 142.665C833.465 141.961 832.401 141.1 833.496 140.505C834.154 140.161 836.831 140.928 837.723 140.959C840.917 141.053 844.502 141.46 847.586 140.849C853.504 139.66 845.598 132.599 842.122 132.427C844.158 130.877 844.659 126.087 844.752 123.691C844.815 122.095 844.893 120.31 844.752 118.713C844.643 117.335 843.704 115.723 844.064 114.517C844.126 114.283 845.41 113.359 845.66 113.015C846.161 112.294 846.412 111.167 846.694 110.353C847.57 107.927 848.275 105.422 848.807 102.901C849.465 99.8016 850.498 94.7137 848.588 91.9271C853.238 91.8019 861.504 87.0896 858.122 81.1877C855.179 76.0684 849.042 69.1488 842.498 70.9179C846.052 65.282 843.766 55.2784 839.758 50.4096C839.07 49.5799 835.986 45.9479 834.592 46.4645C832.948 47.0751 833.684 51.6307 833.763 52.8362C834.138 58.3937 835.093 64.7028 835.078 69.869C834.624 68.053 832.917 66.691 831.477 65.5951C828.878 63.6226 826.483 61.2743 823.493 59.881C820.44 58.4564 811.971 55.748 814.115 61.697C816.714 68.9297 821.755 77.3678 830.553 77.4148C830.365 77.1173 830.616 77.2269 831.023 77.4617V77.493Z" fill="#222222"/>
<path d="M765.396 56.4056C763.565 53.525 762.532 50.0965 759.745 47.9674C757.177 45.9949 753.405 46.0419 750.54 47.5134C747.205 49.2199 743.73 54.0886 743.041 57.7206C742.18 62.3232 743.495 67.2546 743.26 72.0294C743.072 75.9745 741.773 79.1056 738.83 81.7982C735.871 84.5066 732.943 83.6142 729.123 83.8021C719.746 84.2561 711.136 85.0545 702.729 89.2814C700.412 90.4399 698.173 91.9428 696.248 93.6649C694.76 94.9956 693.398 97.8135 691.629 98.5023C690.393 98.9876 688.577 98.2988 686.886 99.2694C685.179 100.256 684.553 101.461 683.363 102.792C681.563 104.811 678.573 107.629 675.301 107.989C671.121 108.428 662.589 107.269 659.301 110.071C660.585 112.044 667.63 112.498 669.963 112.592C668.648 112.936 666.346 115.457 667.52 117.492C668.522 119.198 672.295 119.042 673.845 119.418C667.896 121.735 677.289 122.361 678.761 122.58C682.315 123.112 685.884 124.599 689.171 126.165C692.209 127.605 694.181 129.797 697.516 130.705C700.819 131.597 703.371 131.519 706.032 130.815C706.314 133.335 706.126 136.466 706.439 138.752C704.701 138.517 704.013 139.566 704.701 141.053C705.281 142.29 706.58 142.728 707.551 143.542C709.727 145.39 711.997 147.566 713.077 150.227C714.533 149.288 712.529 147.159 713.781 146.423C714.893 145.75 717.304 146.939 718.666 146.391C717.633 144.982 716.709 144.325 715.441 143.104C716.067 142.384 718.822 141.679 718.337 140.724C717.993 140.051 714.032 139.942 713.218 139.66C712.138 139.3 711.073 138.626 710.134 138C708.913 137.202 709.351 138.188 709.054 136.779C708.6 134.619 709.085 132.114 709.273 129.703C709.648 129.546 710.024 129.406 710.431 129.233C713.233 128.059 712.842 129.265 716.224 130.251C717.398 130.595 718.541 130.83 719.636 130.971C719.636 132.396 719.605 133.867 720.122 135.12C718.76 135.402 716.85 135.229 717.132 137.139C717.288 138.219 718.948 139.362 719.762 140.02C722.016 141.82 725.006 142.947 727.057 144.998C727.652 144.309 727.339 143.323 727.26 142.462C729.437 142.18 731.769 141.444 733.898 141.35C733.006 140.286 731.863 139.675 730.892 138.752C731.362 137.656 732.896 137.625 733.209 136.45C731.362 136.075 729.969 136.059 728.059 136.059C726.54 136.059 723.691 135.151 722.533 135.668C722.595 134.165 722.705 132.599 722.861 131.049C724.161 130.908 725.476 130.564 726.822 129.969C729.781 128.638 732.662 126.713 734.274 123.817C735.26 122.048 735.041 118.854 736.184 117.508C737.515 115.942 741.914 115.472 743.761 114.58C747.221 112.921 748.99 109.978 750.571 106.565C753.937 99.332 752.872 91.8958 753.248 84.2561C753.405 80.9216 753.436 77.587 753.561 74.2681C753.639 72.186 752.794 68.6636 753.999 66.8632C755.628 64.4367 759.933 66.3309 761.326 62.5894C763.455 63.0747 765.349 63.8731 767.604 63.9983C769.514 64.0923 770.704 63.3721 772.504 63.4034C773.036 61.1804 766.665 58.519 765.349 56.4525L765.396 56.4056Z" fill="#222222"/>
<path d="M757.804 107.363C758.477 106.314 758.853 105.062 759.87 104.279C760.81 103.559 762.187 103.575 763.236 104.107C764.457 104.733 765.725 106.518 765.976 107.833C766.289 109.524 765.804 111.324 765.897 113.062C765.976 114.502 766.445 115.645 767.526 116.631C768.606 117.617 769.686 117.288 771.079 117.367C774.508 117.539 777.654 117.821 780.739 119.371C781.584 119.793 782.398 120.341 783.118 120.983C783.666 121.468 784.167 122.502 784.809 122.752C785.263 122.924 785.92 122.674 786.547 123.034C787.173 123.394 787.408 123.832 787.83 124.318C788.488 125.053 789.584 126.087 790.773 126.212C792.308 126.368 795.423 125.946 796.629 126.979C796.159 127.699 793.576 127.871 792.73 127.903C793.216 128.028 794.061 128.952 793.623 129.703C793.263 130.329 791.869 130.267 791.306 130.408C793.482 131.253 790.038 131.488 789.505 131.566C788.206 131.769 786.891 132.302 785.701 132.881C784.59 133.413 783.87 134.212 782.648 134.54C781.443 134.869 780.504 134.838 779.533 134.587C779.424 135.511 779.502 136.654 779.377 137.499C780.018 137.421 780.269 137.797 780.003 138.345C779.784 138.799 779.314 138.955 778.954 139.253C778.155 139.926 777.326 140.724 776.934 141.695C776.402 141.35 777.138 140.568 776.684 140.302C776.277 140.051 775.4 140.489 774.899 140.302C775.275 139.785 775.619 139.55 776.073 139.096C775.839 138.83 774.837 138.579 775.009 138.219C775.134 137.969 776.59 137.938 776.887 137.828C777.279 137.703 777.67 137.452 778.015 137.217C778.453 136.92 778.296 137.296 778.406 136.763C778.578 135.965 778.406 135.057 778.328 134.165C778.187 134.102 778.046 134.055 777.905 133.993C776.872 133.554 777.028 133.993 775.776 134.368C775.338 134.493 774.93 134.587 774.523 134.634C774.523 135.151 774.523 135.699 774.351 136.153C774.852 136.263 775.541 136.2 775.447 136.889C775.384 137.28 774.79 137.703 774.476 137.938C773.647 138.595 772.551 139.002 771.815 139.754C771.596 139.503 771.706 139.143 771.737 138.83C770.938 138.72 770.093 138.454 769.31 138.423C769.639 138.032 770.062 137.812 770.406 137.468C770.234 137.077 769.67 137.061 769.561 136.623C770.234 136.482 770.751 136.482 771.455 136.482C772.003 136.482 773.052 136.153 773.475 136.341C773.459 135.793 773.412 135.214 773.349 134.65C772.88 134.603 772.394 134.478 771.909 134.259C770.829 133.773 769.78 133.069 769.185 132.004C768.825 131.362 768.903 130.188 768.481 129.687C767.995 129.108 766.383 128.936 765.71 128.623C764.442 128.012 763.8 126.932 763.22 125.695C761.984 123.05 762.375 120.326 762.25 117.523C762.187 116.302 762.187 115.081 762.14 113.86C762.109 113.093 762.422 111.809 761.984 111.152C761.389 110.259 759.808 110.964 759.307 109.586C758.524 109.758 757.835 110.056 757.005 110.103C756.301 110.134 755.878 109.868 755.205 109.884C755.001 109.07 757.35 108.099 757.819 107.332L757.804 107.363Z" fill="#222222"/>
<path d="M877.738 129.985C884.626 132.145 891.64 135.996 898.872 136.67C904.446 137.186 909.565 136.779 915.201 137.797C930.965 140.677 947.388 142.258 963.106 138.251C968.867 136.779 974.862 134.509 980.749 133.977C988.06 133.319 995.418 134.916 1002.76 134.431C1013.64 133.711 1025.26 128.607 1036.17 129.86C1042.99 130.642 1052.36 132.302 1058.73 134.54C1067.35 137.578 1072.82 137.39 1081.88 137.734C1089.18 138.016 1096.85 136.059 1104.1 137.186C1110.8 138.235 1116.89 138.783 1123.84 138.783H1174.14V243.845H0V138.783C0 135.855 45.7444 142.211 49.0007 142.274C62.0257 142.525 74.0959 140.176 86.667 137.108C97.469 134.478 109.477 132.396 120.545 131.331C127.903 130.627 135.167 132.458 142.415 131.629C152.56 130.47 161.827 126.65 172.238 126.29C183.682 125.883 195.016 129.186 206.492 129.406C216.714 129.609 226.624 131.425 236.753 131.441C242.248 131.441 242.373 132.036 246.444 135.057C250.984 138.423 253.927 138.047 259.61 137.202C268.971 135.824 277.879 138.439 287.319 136.701C297.62 134.791 310.004 136.842 320.712 136.325C336.962 135.542 351.349 135.511 367.004 129.891C378.135 125.899 390.956 119.997 402.792 119.089C412.263 118.369 419.809 124.819 428.811 126.697C439.628 128.967 450.462 130.611 461.452 131.895C470.328 132.928 477.983 136.842 487.016 137.108C496.676 137.405 504.989 142.211 514.883 141.178C519.548 140.693 523.947 139.206 528.769 139.628C533.7 140.067 538.209 141.914 543.312 141.757C550.028 141.538 556.588 139.3 563.351 139.738C570.818 140.208 577.55 141.272 585.002 139.926C590.027 139.018 594.974 136.951 600.047 136.435C612.367 135.182 625.017 140.615 637.713 139.816C658.033 138.532 677.743 134.901 698.189 136.059C714.642 136.998 729.828 134.572 746.062 133.554C752.872 133.131 757.6 135.401 763.706 137.765C769.498 140.02 774.649 139.769 780.707 139.159C787.267 138.486 794.108 137.092 800.715 137.671C805.959 138.141 810.64 139.801 815.994 139.409C827.422 138.564 838.6 134.055 850.028 132.615C859.03 131.472 868.924 127.229 877.738 129.985Z" fill="#222222"/>
<path d="M519.563 45.5565C520.252 44.7268 519.955 44.6172 519.736 43.6153C519.423 42.1281 519.313 40.9696 521.098 40.5156C521.254 38.1673 519.704 33.7525 523.931 34.8327C522.413 32.1244 525.81 31.9522 527.422 32.9854C528.518 31.9209 528.127 30.7468 530.209 31.326C532.322 31.9209 532.26 33.2359 533.027 34.9423C535.093 34.2065 536.471 36.1321 535.391 37.8229C533.919 40.1398 534.06 40.5156 536.815 41.3923C539.743 42.3316 542.827 43.8188 545.034 45.9949C548.009 48.938 548.557 52.7579 550.608 56.2177C551.876 58.3625 552.909 60.6481 554.287 62.7302C555.21 64.1236 556.15 65.5012 557.011 66.9258C560.392 72.5304 564.556 75.9745 570.709 78.4011C576.204 80.5615 582.341 81.8295 588.258 81.5164C588.634 77.6183 587.444 73.9863 588.227 69.9473C588.681 67.5833 589.213 65.1725 590.121 62.9494C592.203 57.8145 595.694 53.4311 601.236 52.2256C609.377 50.4566 617.048 51.1454 623.185 57.4701C629.29 63.7635 633.376 75.4422 633.142 84.1935C633.048 87.5593 631.56 93.2578 629.197 95.8566C625.017 100.459 629.197 93.4613 626.645 91.9584C625.643 95.0425 624.719 100.099 620.07 98.1579C622.026 104.107 620.367 114.737 614.402 117.649C614.121 116.568 614.089 115.285 614.152 114.079C614.105 116.224 612.007 119.746 609.862 117.602C608.814 116.537 609.142 113.703 609.283 111.872C608.798 115.692 604.289 119.778 601.362 115.817C601.221 117.915 600.203 119.84 598.888 121.484C597.056 123.785 596.493 123.081 594.473 123.817C593.237 124.255 593.612 123.519 592.078 125.069C588.931 128.294 587.898 131.676 582.075 129.844C583.108 132.912 582.247 137.468 579.523 138.047C579.069 139.597 578.396 141.116 577.519 142.806C576.517 144.748 575.531 146.783 574.607 148.708C575.687 148.192 577.957 149.961 579.069 150.368C580.478 150.884 581.808 151.432 581.965 153.264C579.382 153.421 576.877 152.826 574.294 152.857C572.055 152.888 571.617 153.937 570.067 155.565C569.441 156.207 566.435 159.542 565.684 158.008C565.057 156.724 569.237 152.575 570.083 151.996C566.873 152.419 563.774 153.953 560.423 153.561C560.267 151.511 562.803 151.495 564.134 151.072C565.684 150.587 567.124 150.462 568.486 149.648C569.848 148.834 571.225 148.505 572.055 147.221C573.135 145.562 573.856 143.26 574.623 141.429C575.218 140.02 575.672 138.501 576.032 136.92C573.918 134.901 572.321 129.907 571.648 127.464C568.971 129.609 565.59 134.807 562.036 134.744C561.817 136.372 561.519 137.985 561.112 139.581C560.69 141.241 559.093 143.386 560.94 144.262C561.159 144.372 565.042 144.81 564.854 145.139C563.695 147.143 561.488 146.438 559.547 147.174C557.198 148.067 555.367 150.274 553.66 152.027C552.878 152.826 549.402 156.348 548.964 153.828C548.635 151.933 552.283 149.366 553.238 147.879C551.97 148.301 543.751 151.166 542.937 149.695C542.123 148.207 549.621 146.611 550.216 145.89C548.651 146.204 545.379 146.188 544.205 144.857C544.893 142.806 551.218 142.806 552.909 142.853C553.692 142.869 556.635 143.558 557.23 143.119C557.919 142.603 557.981 139.769 558.075 139.206C558.404 137.249 558.748 135.292 559.046 133.335C558.921 133.21 558.795 133.085 558.654 132.928C555.633 129.515 555.508 123.582 552.377 119.903C549.199 116.177 544.22 113.077 540.291 110.165C532.119 104.122 527.829 98.7528 525.888 88.436C525.058 84.0056 525.888 79.6222 526.593 75.2387C527 72.6556 527.141 70.0412 527.125 67.4111C527.125 65.6108 527.062 63.8105 526.984 62.0258C526.89 60.0376 526.765 58.0337 526.64 56.0455C526.593 55.2001 526.295 54.386 526.734 53.6189C525.622 54.0103 525.293 55.1688 523.963 55.0749C523.133 55.0123 521.614 54.026 521.113 53.3841C520.331 52.3822 520.753 50.7854 520.205 49.94C520.049 49.7208 515.806 48.1866 515.916 48.0927C516.886 47.3099 518.702 46.4489 519.485 45.5096L519.563 45.5565Z" fill="#222222"/>
<path d="M490.007 56.703C488.378 55.388 488.065 52.9458 485.639 52.4761C485.607 51.4742 485.247 50.2218 484.277 49.7678C482.774 49.0476 481.427 50.6914 480.473 50.8949C479.064 51.1924 473.224 50.1278 475.745 53.7442C473.71 53.6503 473.412 56.3116 473.678 57.8302C473.96 57.7832 473.741 57.6423 473.85 57.4231L474.273 58.2842C470.641 58.6442 465.537 64.1079 463.393 66.8006C460.262 70.7144 457.71 75.1604 455.816 79.7787C453.06 86.4791 447.847 94.9329 440.27 96.9681C434.979 98.377 432.129 96.8428 429.296 92.7882C427.652 90.4399 425.225 88.2168 423.19 86.1504C420.92 83.8491 418.181 81.1094 415.237 79.7474C412.513 78.495 408.506 76.178 405.735 78.5106C403.073 80.7493 404.842 82.8784 406.439 84.9919C404.999 85.4772 404.028 86.213 403.653 87.7942C403.261 89.4849 404.529 89.8763 404.498 91.0348C404.42 93.5553 401.43 96.107 403.887 98.8467C405.641 100.788 406.236 99.4259 405.813 102.369C405.359 105.531 406.111 106.58 408.568 108.146C408.114 109.962 408.396 111.731 409.602 113.249C411.198 115.253 413.046 114.972 415.018 116.067C418.588 118.071 415.3 124.49 419.903 124.02C420.513 126.118 420.529 127.777 421.844 129.672C422.47 130.564 423.316 131.582 424.427 131.863C425.711 132.208 426.572 131.143 427.668 131.269C429.828 131.503 431.581 134.133 434.102 134.306C437.014 134.493 438.204 132.646 439.863 135.214C441.162 137.218 442.712 139.347 444.403 141.178C444.967 144.607 446.391 148.207 448.802 150.258C447.19 150.243 442.556 150.556 442.43 152.403C444.638 153.233 446.845 152.56 448.708 153.937C450.117 154.986 452.904 158.415 454.782 157.804C454.548 156.113 453.373 154.595 451.839 153.734C453.264 152.059 459.072 155.925 461.42 154.109C461.154 150.728 453.499 151.98 451.495 150.305C450.164 149.209 449.24 145.217 448.442 143.495C448.098 142.759 447.91 142.008 447.8 141.272C447.988 141.069 448.176 140.865 448.348 140.63C448.912 139.832 448.959 138.799 449.679 138.11C451.088 136.779 453.796 136.764 455.753 136.388C456.144 138.313 456.833 140.208 457.397 142.039C457.929 143.777 458.32 145.906 459.51 147.268C457.882 147.393 456.223 147.55 454.673 148.16C456.786 149.068 459.322 148.912 461.639 149.053C461.906 150.571 466.117 155.738 467.776 155.002C470.422 153.843 463.862 149.554 463.236 148.677C464.958 149.382 470.406 150.164 471.753 148.599C470.109 146.329 465.475 147.237 463.064 146.235C461.358 145.53 460.841 144.763 460.262 142.916C459.682 141.1 459.291 139.002 459.025 136.842C460.731 135.542 462.469 131.957 463.127 131.19C465.882 127.965 469.937 127.934 472.567 124.631C476.684 119.48 479.956 114.658 482.852 108.788C484.465 105.5 486.187 102.181 486.281 98.471C486.375 94.4476 484.966 91.3009 483.431 87.6846C482.132 84.6318 481.193 81.266 480.833 77.9784C480.441 74.4873 481.6 71.685 482.476 68.3661C483.917 68.6166 485.247 68.8358 486.375 67.8025C487.627 66.644 487.11 64.9689 487.783 63.7322C489.177 61.1491 493.748 61.6657 496.316 61.6657C497.615 59.0043 491.353 57.7676 490.038 56.703H490.007Z" fill="#222222"/>
<path d="M351.881 81.8921C351.834 83.3794 351.959 84.804 352.429 86.1034C354.621 92.2558 364.264 92.0054 367.912 96.9367C369.509 99.0815 371.2 102.025 372.515 104.326C374.08 107.066 373.579 110.588 370.839 112.514C368.115 114.439 364.656 113.938 361.525 114.94C357.642 116.177 357.266 119.277 354.871 122.314C353.634 123.879 351.865 124.913 350.723 126.384C349.846 127.511 349.486 128.936 348.233 130.032C346.214 131.801 339.764 133.539 344.273 136.951C346.402 138.564 349.689 137.969 351.991 139.237C354.386 140.552 354.527 142.728 351.286 143.072C349.674 143.245 348.922 142.399 347.404 142.039C345.791 141.648 344.414 142.039 342.785 142.274C339.874 142.681 330.653 144.247 328.758 142.243C327.553 140.99 327.24 139.394 327.694 137.922C325.361 138.579 322.825 137.562 320.555 137.233C320.618 139.848 320.978 141.977 318.786 143.072C316.845 144.043 314.544 143.182 312.399 143.276C309.377 143.401 301.8 145.139 300.062 142.29C297.933 143.871 291.953 143.495 289.276 143.511C288.305 143.511 284 143.589 283.452 142.525C282.544 140.771 285.957 138.783 286.99 137.906C290.936 134.525 287.804 131.378 287.084 127.073C286.505 123.629 287.241 120.279 286.02 117.022C284.611 113.234 285.378 103.778 290.904 103.199C290.513 105.187 296.352 107.848 296.822 110.353C296.681 108.083 300.61 107.144 302.019 105.657C303.554 104.029 304.242 102.651 306.137 101.258C309.158 99.0345 312.367 96.6393 316.203 96.2479C318.739 95.9974 321.354 96.7489 323.921 96.7645C327.302 96.7958 334.88 100.459 337.76 98.878C338.621 98.4083 339.388 96.5767 339.936 95.7469C341.079 94.0405 342.691 92.6003 343.787 90.9408C340.453 87.6063 338.496 82.127 338.715 77.4774C338.887 73.7514 339.341 65.6734 343.005 63.5756C344.367 66.3779 345.776 68.8983 346.637 71.9041C347.325 69.7437 347.341 67.0041 349.204 65.5638C354.668 69.4463 352.038 76.131 351.881 81.9078V81.8921Z" fill="#222222"/>
</svg>
