<svg width="116" height="120" viewBox="0 0 116 120" fill="none" xmlns="http://www.w3.org/2000/svg">
<path d="M43.3508 29.0065C44.6033 28.4437 46.0756 29.0006 46.6397 30.2502C47.2037 31.4999 46.6456 32.9688 45.3931 33.5317L22.2187 43.946L56.0136 60.5344L56.205 60.6352C56.8934 61.0262 57.3903 61.6128 57.676 62.2803C57.9953 61.5371 58.5773 60.8946 59.3928 60.5121L94.2682 44.1534L72.9096 33.488C71.6813 32.8746 71.1834 31.3838 71.7981 30.1581C72.4129 28.9326 73.9072 28.4368 75.1356 29.0501L101.08 42.0043L101.267 42.108C101.448 42.2192 101.615 42.3533 101.763 42.5074L115.032 56.334L115.179 56.4959C116.581 58.1473 116.133 60.6783 114.249 61.751L114.057 61.8528L104.308 66.6445V96.6301C104.308 98.0011 103.499 99.2432 102.244 99.802L102.245 99.803L57.5701 119.698C56.6449 120.11 55.5887 120.099 54.6767 119.674L54.497 119.584L10.0446 95.652C8.9184 95.0455 8.21606 93.8714 8.21606 92.5945V75.9149C8.21606 74.5445 9.3298 73.4334 10.7033 73.4333C12.077 73.4333 13.1906 74.5444 13.1906 75.9149V91.7046L54.8574 114.138V68.372L44.2369 79.9002C43.2566 80.9643 41.7267 81.3053 40.3972 80.7823L40.1339 80.666L1.94345 61.8906C-0.242835 60.8157 -0.674265 57.89 1.10885 56.2322L17.8475 40.6684L18.0641 40.4842C18.2875 40.3083 18.5318 40.16 18.7919 40.0431L43.3508 29.0065ZM59.832 113.255L99.3331 95.6646V69.0903L75.7758 80.6728C74.4992 81.3004 72.9783 81.0868 71.9274 80.1571L71.7233 79.9612L59.832 67.5916V113.255ZM63.389 64.1222L74.5565 75.7385L110.03 58.299L99.406 47.2284L63.389 64.1222ZM6.08244 58.392L41.3299 75.7201L52.0272 64.1086L18.5655 47.684C18.492 47.6479 18.4203 47.6078 18.3508 47.5647L17.9767 47.3331L6.08244 58.392Z" fill="#E5E5E5" style="fill:#E5E5E5;fill:color(display-p3 0.8980 0.8980 0.8980);fill-opacity:1;"/>
<path d="M47.0199 21.814C45.3414 22.272 45.016 20.4696 45.0096 20.4709L45.0087 20.4699L45.0077 20.467L44.9999 20.436C44.9948 20.417 44.988 20.3909 44.9795 20.3584C44.9626 20.2936 44.9388 20.2021 44.9105 20.087C44.8541 19.8571 44.778 19.5308 44.6939 19.1302C44.5263 18.3323 44.3241 17.2213 44.1886 15.9719C43.9349 13.6313 43.8373 10.198 45.1991 7.57202L45.5197 6.97777C46.2808 5.62035 47.1429 4.46705 48.2314 3.48114C49.4729 2.35674 50.8972 1.5508 52.555 0.866656L52.7795 0.779409C53.9462 0.354592 55.7542 0.0832138 57.4966 0.0164889C59.3742 -0.0554119 61.7127 0.0866882 63.603 0.866656L64.6951 1.32906C65.7743 1.80262 66.809 2.32512 67.7449 3.02358C69.0634 4.0076 70.0735 5.24751 70.959 6.95451L71.1659 7.36553C73.1847 11.4955 73.7524 16.4249 71.094 20.7627L70.8181 21.195C69.5009 23.1632 67.4597 24.3265 65.8824 25.0426C65.0658 25.4134 64.2858 25.7017 63.6798 25.9219C62.9823 26.1752 62.6896 26.2816 62.5576 26.3484C62.2566 26.5008 61.6621 26.922 61.107 27.5194C60.5307 28.1396 60.2687 28.6571 60.2141 28.9328C60.0926 29.5486 60.0777 30.3743 60.1228 31.5172C60.1637 32.5546 60.2617 33.9455 60.2617 35.2398C60.2617 36.6102 59.1479 37.7212 57.7744 37.7214C56.4007 37.7214 55.2872 36.6103 55.2872 35.2398C55.2872 34.0664 55.2025 32.9891 55.1521 31.7131C55.1059 30.5428 55.09 29.209 55.3338 27.9741C55.6447 26.399 56.6032 25.0666 57.4596 24.1449C58.3376 23.2002 59.3897 22.3867 60.3074 21.9221C60.7847 21.6805 61.4798 21.4392 61.9785 21.2581C62.5687 21.0437 63.1943 20.8104 63.8226 20.5252C65.1351 19.9293 66.1435 19.2422 66.681 18.439L66.8384 18.1928C68.3579 15.7182 68.2262 12.6689 66.6985 9.54863L66.5411 9.23648C65.9381 8.07383 65.3823 7.45814 64.766 6.99813C64.2507 6.6135 63.626 6.28431 62.715 5.88332L61.7016 5.4529C60.7975 5.07999 59.3099 4.91381 57.687 4.97596C56.2502 5.03101 55.1191 5.24649 54.6274 5.39474L54.4564 5.4529C53.1482 5.99278 52.2681 6.52812 51.5747 7.15614C50.9701 7.70377 50.4221 8.39976 49.8598 9.40322L49.6179 9.85302C48.9883 11.0669 48.8909 13.1862 49.135 15.4378C49.2485 16.4841 49.4189 17.4292 49.5625 18.1133C49.634 18.4535 49.6985 18.7249 49.7432 18.9073C49.7655 18.998 49.7825 19.0665 49.7938 19.1099C49.7994 19.1315 49.804 19.1476 49.8064 19.1564L49.8083 19.1632C50.1701 20.4848 49.3898 21.8493 48.0653 22.211C46.7404 22.5726 45.3722 21.7927 45.0096 20.4709L47.0199 21.814Z" fill="#E5E5E5" style="fill:#E5E5E5;fill:color(display-p3 0.8980 0.8980 0.8980);fill-opacity:1;"/>
<ellipse cx="58.4601" cy="44.1738" rx="3.97965" ry="3.97068" fill="#E5E5E5" style="fill:#E5E5E5;fill:color(display-p3 0.8980 0.8980 0.8980);fill-opacity:1;"/>
</svg>
