<svg class="img-fluid" id="outputsvg" xmlns="http://www.w3.org/2000/svg" style="transform: matrix(1.69, 0, 0, 1.69, 0, 0); transform-origin: 50% 50%; cursor: move; transition: transform 200ms ease-in-out;" width="1200" height="1200" viewBox="0 0 12000 12000"><g id="l6pAd2pfGFNlmldFpEIMFkM" fill="rgb(189,32,37)" style="transform: none;"><g style="transform: none;"><path id="p3FbM84Al" d="M5090 8900 c0 -11 7 -20 15 -20 8 0 15 -4 15 -10 0 -5 23 -10 50 -10 49 0 50 1 50 30 l0 30 -65 0 c-58 0 -65 -2 -65 -20z"></path><path id="pF3fxYY3X" d="M4943 8903 c-7 -2 -13 -16 -13 -29 0 -23 3 -24 65 -24 l65 0 0 30 c0 30 -1 30 -52 29 -29 0 -59 -3 -65 -6z"></path><path id="pkGxSAyKX" d="M5290 8888 l0 -26 130 -7 c72 -4 130 -11 130 -16 0 -5 9 -9 20 -9 11 0 20 -4 20 -10 0 -5 -4 -10 -8 -10 -5 0 -14 -11 -21 -24 -7 -13 -29 -33 -50 -44 -20 -12 -80 -64 -134 -117 -54 -52 -115 -104 -135 -115 -20 -10 -74 -54 -118 -97 -45 -43 -109 -98 -142 -122 -34 -25 -70 -57 -82 -73 -11 -15 -27 -28 -36 -28 -8 0 -42 -29 -77 -63 -34 -35 -82 -77 -107 -93 -25 -16 -63 -47 -85 -70 -22 -23 -65 -59 -95 -79 -30 -20 -86 -66 -125 -101 -38 -36 -93 -84 -122 -107 -127 -103 -201 -166 -253 -213 -30 -28 -75 -64 -100 -79 -25 -16 -63 -47 -86 -69 -22 -23 -71 -69 -110 -103 -38 -34 -84 -75 -102 -91 -54 -48 -150 -103 -205 -118 -33 -9 -106 -14 -199 -14 l-148 0 0 50 c0 38 -4 50 -15 50 -8 0 -15 -1 -16 -2 0 -2 -6 -54 -13 -115 l-12 -113 2189 0 2189 0 -7 78 c-24 264 -106 538 -235 787 -90 174 -107 202 -129 208 -10 2 -21 17 -25 33 -9 35 -47 94 -61 94 -11 0 -77 74 -85 96 -12 30 -179 201 -264 269 -188 150 -365 254 -576 337 -140 56 -253 88 -307 88 -23 0 -43 5 -45 10 -4 14 -138 38 -253 46 l-95 7 0 -25z"></path><path id="pPu5YackS" d="M4377 8765 c-107 -42 -267 -124 -267 -136 0 -5 -8 -9 -17 -9 -18 0 -194 -112 -214 -136 -9 -11 -7 -14 9 -14 11 0 22 -7 26 -15 4 -11 20 -15 56 -15 27 0 50 4 50 9 0 12 40 53 73 74 15 9 27 24 27 32 0 10 11 15 33 15 22 0 42 10 64 30 18 17 47 33 65 37 49 9 68 21 68 44 0 33 25 49 74 49 46 0 46 0 46 35 0 19 -1 35 -2 35 -2 -1 -43 -16 -91 -35z"></path><path id="p1DeC4cosc" d="M7983 7773 c-18 -2 -33 -5 -33 -6 0 -1 9 -34 20 -72 32 -111 60 -301 60 -410 0 -329 -165 -548 -484 -645 -148 -45 -263 -59 -486 -61 -118 -1 -238 2 -265 6 -48 7 -52 6 -62 -18 -14 -30 -13 -32 82 -114 211 -182 439 -293 670 -328 124 -18 156 -19 276 0 102 15 192 42 274 82 78 39 165 97 165 111 0 6 7 12 15 12 21 0 95 70 156 146 93 117 162 278 191 444 12 68 3 203 -17 260 -8 24 -13 45 -11 48 10 10 -37 109 -65 134 -16 15 -29 33 -29 40 0 28 -85 143 -117 158 -18 8 -33 18 -33 22 0 13 -55 64 -105 99 -55 38 -160 100 -166 97 -2 0 -19 -3 -36 -5z"></path><path id="p15k9tpsds" d="M8830 6663 c-133 -247 -323 -467 -510 -591 -30 -20 -61 -44 -69 -55 -7 -10 -19 -16 -26 -13 -7 2 -36 -6 -64 -19 -228 -106 -500 -123 -785 -48 -143 37 -267 89 -491 206 -16 9 -55 27 -86 42 -31 14 -59 33 -61 43 -3 9 -27 28 -54 41 -27 14 -55 31 -63 38 -8 9 -30 13 -60 11 -44 -3 -46 -4 -52 -38 -15 -100 158 -426 314 -588 188 -196 462 -338 746 -386 124 -21 349 -21 472 0 108 19 275 72 363 116 318 160 525 438 576 772 8 56 9 81 1 89 -7 7 -11 72 -11 182 0 135 -3 175 -15 191 -8 10 -15 27 -15 37 0 11 -8 17 -25 17 -16 0 -25 6 -25 15 0 33 -20 12 -60 -62z"></path><path id="pHZzkJxgo" d="M5465 6680 c-266 -39 -335 -101 -449 -408 -54 -144 -82 -207 -89 -195 -5 8 -29 118 -28 128 0 3 -17 54 -38 115 -76 217 -180 320 -340 336 l-61 7 -1 -129 c-1 -71 -4 -153 -7 -182 l-7 -53 -45 57 c-72 90 -186 191 -255 225 -64 31 -196 58 -227 46 -34 -13 11 -136 131 -356 149 -273 196 -454 170 -662 -14 -115 -34 -170 -137 -371 -122 -237 -150 -354 -118 -491 24 -103 60 -163 150 -253 141 -141 300 -201 506 -191 125 7 220 32 333 89 210 105 392 291 528 541 122 222 179 367 324 812 138 423 181 537 277 728 61 123 60 139 -7 149 -59 9 -93 4 -202 -28 -141 -42 -265 -140 -360 -284 -20 -30 -38 -57 -40 -60 -2 -2 -9 2 -14 10 -14 21 -3 193 17 260 9 30 33 81 54 113 l38 57 -26 -1 c-15 -1 -49 -5 -77 -9z m-827 -1641 c82 -40 130 -156 98 -234 -57 -136 -197 -175 -302 -82 -48 41 -64 77 -64 137 0 150 138 241 268 179z"></path><path id="p9KxtXlgt" d="M6238 6153 c-25 -7 -40 -89 -45 -264 -4 -121 -2 -180 12 -260 75 -451 376 -841 828 -1073 341 -175 731 -227 1063 -141 303 79 552 255 737 521 34 50 147 254 147 267 0 4 -22 7 -48 7 -33 0 -78 -12 -144 -39 -187 -77 -401 -137 -589 -167 -134 -21 -408 -26 -519 -9 -216 33 -441 119 -627 241 -46 29 -83 52 -83 50 0 -9 -132 115 -245 230 -122 125 -223 254 -338 431 -26 40 -47 75 -47 78 0 11 -74 135 -80 134 -3 -1 -13 -3 -22 -6z"></path><path id="pFAp9sRXK" d="M3584 5986 c-95 -44 -174 -164 -174 -265 0 -57 27 -136 86 -251 57 -112 208 -350 222 -350 13 0 176 268 230 380 69 142 79 185 62 269 -20 102 -80 180 -170 220 -66 30 -188 29 -256 -3z"></path><path id="p6WpgmY4Q" d="M3495 4884 c-99 -35 -206 -71 -237 -81 -32 -10 -58 -20 -58 -23 0 -4 92 -40 453 -175 82 -30 87 -25 68 69 -8 34 -15 108 -17 166 -3 75 -8 105 -16 106 -7 1 -94 -27 -193 -62z"></path><path id="pmase3E3k" d="M3801 4359 c-45 -117 -62 -201 -68 -329 -5 -107 -2 -138 16 -210 40 -160 124 -291 229 -359 88 -56 149 -38 246 74 26 30 55 55 65 55 32 0 86 -73 157 -211 101 -196 176 -266 312 -291 116 -22 235 43 262 142 16 59 0 149 -42 234 -17 35 -28 71 -25 79 15 39 231 35 337 -6 75 -28 164 -82 222 -135 l40 -36 21 24 c66 81 98 247 72 374 -45 214 -203 370 -401 395 -85 11 -117 6 -206 -27 -156 -58 -451 -81 -603 -46 -228 52 -401 144 -518 274 -24 27 -55 52 -68 55 -22 5 -26 0 -48 -56z"></path></g></g><g id="lq55zALfcQ3B3PRkZ2yAjr" fill="rgb(177,35,40)" style="transform: none;"><g style="transform: none;"><path id="p11VpaAWQq" d="M5058 8913 c-16 -3 -28 -11 -28 -19 0 -9 -11 -14 -35 -14 -22 0 -35 5 -35 13 0 11 -14 12 -67 5 -191 -25 -465 -100 -456 -124 3 -8 1 -14 -5 -14 -6 0 -12 5 -14 11 -3 9 -9 9 -23 1 -11 -6 -35 -17 -53 -24 -27 -10 -32 -18 -29 -36 5 -26 -2 -32 -50 -42 -29 -7 -32 -6 -22 6 69 83 -295 -128 -469 -273 -154 -127 -342 -345 -454 -525 -68 -109 -168 -320 -207 -433 -50 -148 -92 -333 -92 -409 0 -37 3 -71 6 -74 11 -11 353 -1 403 12 54 15 151 70 204 118 18 16 64 57 102 91 39 34 88 80 110 103 23 22 61 53 86 69 25 15 70 51 100 79 52 47 126 110 253 213 29 23 84 71 122 107 39 35 95 81 125 101 30 20 73 56 95 79 22 23 60 54 85 70 25 16 73 58 107 93 35 34 69 63 77 63 9 0 25 13 36 28 12 16 48 48 82 73 33 24 97 79 142 122 44 43 98 87 118 97 20 11 81 63 135 115 54 53 115 106 136 117 20 12 37 24 37 27 0 3 13 21 29 40 27 31 35 35 83 35 29 1 64 -1 77 -4 13 -3 26 0 28 6 6 17 -151 57 -188 49 -16 -4 -29 -2 -29 3 0 12 -94 33 -98 21 -5 -11 -29 -12 -34 -1 -5 13 -58 24 -58 12 0 -14 -27 -12 -33 3 -4 9 -8 8 -16 -3 -9 -12 -13 -13 -20 -2 -4 8 -35 16 -70 19 -52 5 -61 3 -61 -11 0 -9 -8 -16 -20 -16 -11 0 -20 6 -20 13 0 14 -37 18 -92 10z m-875 -287 c-15 -14 -30 -20 -31 -15 -6 15 19 39 40 39 16 0 15 -3 -9 -24z m-112 -67 c-24 -20 -41 -24 -41 -11 0 10 53 42 60 35 3 -2 -6 -13 -19 -24z m-46 -29 c3 -6 -1 -13 -9 -16 -8 -3 -18 -15 -21 -26 -5 -12 -14 -18 -28 -16 -32 5 -31 25 3 39 16 8 30 17 30 21 0 11 18 10 25 -2z"></path><path id="pzDBDuwtj" d="M5810 8813 c0 -9 25 -22 135 -69 44 -19 87 -34 97 -34 9 0 20 -5 23 -10 4 -6 51 -32 105 -59 124 -61 275 -161 365 -243 39 -35 86 -77 105 -93 46 -40 160 -170 160 -182 0 -5 21 -31 48 -59 55 -57 93 -108 96 -129 1 -9 8 -21 14 -27 7 -7 12 -17 12 -23 0 -5 10 -15 22 -20 18 -8 78 -103 105 -165 4 -8 10 -17 14 -20 9 -6 79 -173 116 -277 15 -42 32 -73 39 -73 8 0 14 6 14 14 0 21 -39 144 -62 196 -96 215 -186 378 -270 485 -4 6 -27 35 -50 65 -114 149 -329 344 -518 470 -135 91 -363 200 -510 246 -52 16 -60 17 -60 7z"></path><path id="p1GP0kUZKb" d="M7940 7802 c0 -5 9 -35 19 -68 63 -194 88 -460 57 -611 -20 -100 -42 -154 -95 -232 -66 -97 -175 -178 -311 -231 -75 -29 -247 -66 -350 -75 -110 -9 -447 -7 -527 3 -35 5 -63 7 -63 5 0 -6 67 -69 137 -129 l68 -58 -52 55 c-68 70 -62 81 46 83 57 1 84 5 90 15 7 11 9 11 13 0 6 -18 314 -13 408 6 108 23 261 71 330 103 68 32 215 158 236 203 95 198 106 251 100 449 -6 192 -8 210 -39 313 -15 48 -27 92 -27 97 0 22 37 7 124 -47 94 -60 147 -105 159 -137 4 -10 10 -16 14 -13 19 20 133 -122 133 -167 0 -9 4 -16 9 -16 25 0 76 -124 101 -247 13 -65 6 -208 -11 -229 -5 -7 -9 -16 -7 -20 6 -22 -15 -102 -39 -148 -14 -28 -30 -58 -34 -66 -4 -8 -12 -14 -18 -13 -10 3 -15 -10 -12 -29 0 -4 -5 -17 -12 -30 -56 -104 -139 -195 -185 -204 -21 -4 -32 -12 -32 -24 0 -19 -40 -50 -63 -50 -8 0 -34 -15 -58 -32 -63 -47 -80 -55 -167 -84 -93 -31 -105 -33 -257 -43 l-120 -9 150 3 c131 2 160 6 232 29 237 77 397 193 520 376 142 212 181 384 143 631 -31 207 -203 433 -425 559 -138 79 -185 99 -185 82z"></path><path id="pnnZGKZgt" d="M7260 7298 c0 -36 32 -118 45 -118 8 0 15 -4 15 -10 0 -5 -5 -10 -11 -10 -18 0 -6 -55 13 -58 16 -3 17 2 11 44 -10 77 -39 159 -57 162 -9 2 -16 -3 -16 -10z"></path><path id="pVUpNbG1g" d="M7341 7078 c0 -10 -5 -18 -11 -18 -11 0 -13 -52 -4 -87 9 -33 34 -29 33 5 -1 36 -16 122 -18 100z"></path><path id="pZ3LfoqPI" d="M7360 6905 c0 -16 -6 -25 -15 -25 -8 0 -15 -4 -15 -10 0 -5 9 -10 20 -10 16 0 20 7 20 35 0 19 -2 35 -5 35 -3 0 -5 -11 -5 -25z"></path><path id="pzYOeQAc2" d="M5183 6863 c43 -2 110 -2 150 0 40 1 5 3 -78 3 -82 0 -115 -2 -72 -3z"></path><path id="pbrHnuXJy" d="M8872 6743 c-264 -535 -638 -825 -1094 -850 -89 -5 -118 -9 -123 -21 -4 -12 14 -14 127 -9 136 5 248 25 328 58 25 10 55 21 68 24 12 4 22 11 22 16 0 5 15 9 33 9 23 0 40 8 58 28 14 15 39 37 55 49 16 13 44 36 63 53 18 16 38 30 44 30 13 0 123 115 173 180 21 27 44 50 50 50 7 0 16 10 20 22 4 13 28 55 54 94 26 40 49 76 51 80 24 55 74 124 90 124 10 0 19 -7 19 -15 0 -9 6 -26 14 -38 20 -30 26 -451 7 -517 -23 -83 -54 -165 -70 -185 -14 -18 -35 -58 -55 -105 -25 -58 -128 -181 -191 -228 -173 -130 -192 -142 -285 -177 -41 -15 -93 -36 -115 -45 -22 -10 -64 -23 -92 -30 -66 -15 -69 -25 -5 -15 56 8 140 36 236 77 325 141 534 390 618 738 8 36 13 120 13 240 0 166 -3 197 -27 297 -39 162 -39 162 -86 66z"></path><path id="p1GFe9AdEt" d="M5466 6679 c-142 -15 -246 -58 -308 -129 -43 -47 -100 -159 -138 -270 -12 -36 -36 -94 -51 -129 -28 -62 -38 -105 -20 -85 11 12 91 201 91 217 1 50 105 231 139 242 11 3 22 12 25 20 6 18 45 38 123 64 65 22 173 42 173 32 0 -4 -8 -18 -17 -31 -45 -63 -62 -139 -60 -268 l2 -107 30 -1 c36 -2 51 9 71 52 16 33 92 117 149 164 59 49 104 80 115 80 6 0 30 8 53 19 45 20 228 48 246 37 6 -4 -12 -51 -49 -126 -33 -66 -60 -123 -60 -128 0 -5 -8 -20 -19 -33 -10 -13 -24 -42 -30 -64 -7 -22 -16 -49 -21 -60 -5 -11 -17 -47 -28 -80 -11 -33 -33 -100 -50 -150 -26 -79 -68 -212 -100 -325 -6 -19 -22 -66 -37 -105 -15 -38 -43 -113 -61 -165 -18 -52 -38 -104 -43 -115 -20 -40 -51 -114 -51 -120 0 -14 -134 -252 -155 -275 -13 -14 -31 -41 -40 -60 -42 -84 -173 -222 -275 -290 -21 -14 -58 -40 -83 -58 -54 -38 -174 -88 -249 -103 -109 -22 -301 -12 -373 21 -11 5 -42 18 -69 30 -80 33 -150 85 -207 152 -70 83 -73 87 -60 62 6 -12 34 -48 63 -79 209 -229 543 -278 853 -125 123 61 207 123 310 232 69 72 169 207 214 288 43 78 151 300 151 310 0 6 8 27 19 48 18 37 132 372 231 682 29 91 61 183 70 205 10 22 29 70 43 106 31 79 94 212 141 295 19 34 32 65 29 68 -19 19 -200 -2 -300 -35 -123 -40 -265 -157 -343 -283 -19 -30 -39 -56 -44 -56 -4 0 -6 60 -4 133 4 145 18 191 79 268 17 22 25 38 17 38 -7 -1 -48 -5 -92 -10z"></path><path id="p1AsgKqq83" d="M4571 6631 c-11 -7 -5 -13 24 -25 20 -9 41 -16 46 -16 5 0 9 -5 9 -10 0 -6 10 -15 23 -21 45 -20 68 -37 57 -41 -7 -2 -2 -17 14 -41 50 -73 74 -134 122 -309 11 -41 20 -58 32 -59 11 0 12 -2 5 -6 -18 -7 -16 -33 2 -33 18 0 19 8 1 90 -46 221 -132 378 -245 451 -47 30 -67 35 -90 20z"></path><path id="pUIkevPxL" d="M3914 6622 c-6 -4 -8 -18 -4 -32 l6 -25 8 29 c8 32 5 38 -10 28z"></path><path id="p19zKGeIk7" d="M3940 6620 c0 -5 11 -10 24 -10 14 0 28 5 31 10 4 6 -7 10 -24 10 -17 0 -31 -4 -31 -10z"></path><path id="pOqSKdJmp" d="M4020 6610 c0 -5 9 -10 20 -10 11 0 20 5 20 10 0 6 -9 10 -20 10 -11 0 -20 -4 -20 -10z"></path><path id="pquFGvOwz" d="M4076 6594 c-4 -11 7 -21 37 -34 41 -18 207 -153 207 -168 0 -15 89 -102 104 -102 28 0 18 18 -65 111 -88 97 -164 159 -233 189 -38 16 -45 17 -50 4z"></path><path id="p5E61CdO5" d="M4463 6465 c0 -22 2 -30 4 -17 2 12 2 30 0 40 -3 9 -5 -1 -4 -23z"></path><path id="pQjB3ZFs" d="M6454 6444 c3 -11 13 -52 22 -93 47 -210 160 -439 296 -596 56 -66 208 -205 222 -204 6 0 -11 19 -39 42 -78 65 -115 107 -115 128 0 10 -6 19 -13 19 -7 0 -18 9 -25 20 -7 11 -17 20 -23 20 -12 0 -48 40 -49 55 0 6 -11 20 -23 32 -13 12 -39 52 -57 90 -19 37 -47 88 -62 112 -16 25 -28 57 -28 71 0 14 -5 31 -11 37 -5 5 -9 32 -7 59 3 52 22 68 49 41 8 -7 36 -24 63 -37 27 -14 52 -35 57 -47 5 -13 15 -23 23 -23 7 0 19 -7 26 -15 6 -8 15 -14 18 -13 13 3 102 -42 154 -76 29 -20 57 -36 63 -36 6 0 60 -19 120 -43 164 -64 225 -82 244 -70 12 7 21 5 34 -8 20 -19 147 -45 172 -35 32 12 12 23 -62 35 -298 46 -673 234 -968 486 -77 66 -89 73 -81 49z"></path><path id="p158Cncl4O" d="M4459 6350 c-5 -55 -4 -68 7 -58 3 3 4 30 2 59 l-3 54 -6 -55z"></path><path id="pbVEfjFGE" d="M6927 6367 c43 -35 83 -58 83 -49 0 8 -95 72 -106 72 -3 0 7 -10 23 -23z"></path><path id="phNjvHlnK" d="M4030 6309 c12 -23 24 -39 26 -36 5 5 -35 77 -42 77 -3 0 5 -18 16 -41z"></path><path id="pa8x55wgC" d="M7026 6299 c17 -28 330 -159 378 -159 29 0 25 17 -4 18 -16 0 -51 10 -77 22 -26 12 -75 30 -108 41 -33 10 -77 30 -98 45 -42 28 -102 50 -91 33z"></path><path id="p2UPV0NQs" d="M4060 6253 c0 -6 9 -21 21 -34 l20 -24 -17 30 c-24 39 -24 40 -24 28z"></path><path id="pM5FpP5bg" d="M6226 6173 c-71 -346 -36 -642 107 -927 55 -110 65 -125 152 -241 92 -123 220 -243 345 -324 22 -14 11 0 -30 38 -36 33 -72 63 -80 66 -9 3 -23 18 -33 34 -9 16 -33 42 -53 57 -41 34 -112 106 -134 137 -8 12 -29 37 -46 55 -38 40 -176 315 -198 394 -9 31 -16 71 -16 90 0 18 -7 58 -15 88 -18 67 -21 273 -5 379 6 41 12 77 15 79 9 9 27 -12 51 -61 15 -29 32 -59 39 -67 6 -8 23 -35 36 -60 13 -25 26 -47 29 -50 6 -6 68 -90 133 -180 26 -36 98 -119 160 -184 118 -126 128 -136 178 -176 17 -14 45 -39 63 -56 17 -17 63 -47 101 -66 39 -20 93 -49 120 -65 118 -70 340 -144 498 -167 137 -20 359 -21 507 -1 134 18 320 54 336 66 6 5 35 14 65 20 29 6 63 18 74 25 11 7 38 16 60 20 22 4 74 22 115 40 41 18 88 36 104 40 26 6 27 5 17 -14 -6 -12 -16 -24 -21 -27 -6 -3 -10 -15 -10 -26 0 -10 -13 -30 -29 -45 -16 -14 -32 -41 -35 -59 -4 -18 -20 -50 -36 -71 -17 -22 -38 -49 -48 -62 -39 -52 -145 -172 -151 -172 -4 0 -25 -16 -47 -35 -21 -19 -58 -42 -81 -51 -24 -9 -43 -22 -43 -28 0 -6 -15 -19 -33 -28 -90 -47 -140 -68 -161 -68 -13 0 -33 -9 -45 -19 -13 -12 -46 -23 -79 -27 -30 -4 -76 -16 -101 -27 -109 -49 -546 -17 -706 51 -11 5 -54 20 -95 32 -41 13 -86 32 -99 42 -13 10 -31 18 -40 18 -9 0 -25 6 -36 14 -39 27 -160 87 -145 73 35 -35 291 -161 383 -188 212 -63 313 -79 495 -79 168 0 241 9 370 46 167 48 328 131 457 238 145 120 272 289 374 499 23 49 41 91 38 93 -2 3 -58 -20 -124 -50 -368 -166 -802 -251 -1114 -216 -223 24 -340 57 -546 152 -161 74 -378 243 -533 414 -62 68 -215 268 -255 333 -5 9 -24 38 -41 66 -17 27 -45 73 -61 100 -17 28 -42 71 -54 98 -26 54 -35 58 -43 20z"></path><path id="pTxYcx3Dh" d="M4120 6147 c0 -4 9 -26 20 -50 54 -118 82 -245 83 -376 1 -117 -7 -183 -28 -245 -17 -47 -19 -75 -6 -60 44 45 67 347 36 475 -9 41 -23 88 -29 104 -7 17 -19 46 -26 65 -15 38 -50 100 -50 87z"></path><path id="phiqzzajh" d="M6964 6016 c-8 -22 3 -33 18 -18 9 9 9 15 0 24 -9 9 -13 7 -18 -6z"></path><path id="pcZ8708zS" d="M3663 6013 c-19 -2 -33 -10 -33 -18 0 -9 22 -14 78 -17 114 -6 181 -43 236 -130 27 -42 48 -143 36 -173 -6 -15 -10 -36 -10 -49 0 -23 -57 -143 -110 -231 -16 -27 -35 -61 -42 -75 -11 -23 -93 -149 -104 -160 -3 -2 -21 13 -40 35 l-35 40 38 -59 37 -58 21 26 c36 45 156 243 202 333 98 192 106 289 32 398 -72 106 -182 156 -306 138z"></path><path id="pgiHCSsEn" d="M3569 5980 c-42 -22 -129 -117 -129 -140 0 -9 -5 -21 -12 -28 -21 -21 -14 -160 11 -212 12 -25 19 -36 16 -25 -14 47 -26 123 -26 162 1 75 53 155 137 208 29 19 54 39 54 45 0 14 -9 12 -51 -10z"></path><path id="pK7eYqFCP" d="M7590 5880 c0 -15 7 -20 24 -20 14 0 28 5 31 11 9 13 7 15 -27 23 -24 5 -28 3 -28 -14z"></path><path id="p1HTxQarcL" d="M7060 5507 c0 -8 155 -97 169 -97 9 0 -31 25 -101 64 -38 21 -68 36 -68 33z"></path><path id="pMprLQJlY" d="M7240 5406 c0 -3 24 -12 53 -22 28 -9 59 -19 67 -22 10 -3 12 -2 5 6 -5 5 -34 17 -64 26 -60 18 -61 18 -61 12z"></path><path id="p1A8NaedBG" d="M4144 5358 c-11 -24 -44 -90 -74 -148 -29 -58 -57 -115 -61 -127 -5 -13 -13 -33 -18 -45 -31 -77 -55 -238 -32 -224 6 4 11 30 11 58 0 59 49 212 88 273 36 56 89 161 103 202 17 52 6 59 -17 11z"></path><path id="pbW3GQxvw" d="M7380 5356 c0 -6 67 -25 113 -33 51 -8 27 6 -30 17 -32 7 -63 15 -70 17 -7 3 -13 3 -13 -1z"></path><path id="pcypbQFQA" d="M3590 5316 c0 -10 40 -76 46 -76 3 0 -2 12 -10 28 -22 40 -36 58 -36 48z"></path><path id="p19bce0Z3N" d="M4464 5058 c-99 -55 -128 -102 -128 -203 0 -78 19 -122 75 -169 53 -45 168 -61 219 -31 14 8 35 19 48 24 12 6 36 32 52 58 26 41 30 56 30 119 0 58 -4 76 -21 95 l-20 24 11 -23 c17 -35 17 -134 0 -168 -21 -42 -76 -91 -117 -105 -131 -43 -278 91 -243 221 43 158 208 213 316 105 14 -14 28 -24 31 -22 2 3 -15 21 -38 41 -70 59 -147 71 -215 34z"></path><path id="pxFCidKm7" d="M3593 4917 c-46 -17 -83 -36 -83 -40 0 -5 10 -7 23 -4 12 4 55 14 95 24 55 14 72 22 72 35 0 24 -10 22 -107 -15z"></path><path id="p1fbBM8Ne" d="M3331 4827 c-36 -12 -66 -28 -69 -35 -6 -19 26 -14 48 8 11 11 20 16 20 11 0 -14 83 12 88 27 5 17 -14 15 -87 -11z"></path><path id="pFR4GZEqy" d="M3230 4790 c-12 -7 -12 -12 -3 -21 15 -15 26 -7 21 15 -2 11 -7 13 -18 6z"></path><path id="p14AL7SWzu" d="M3962 4770 c0 -19 2 -27 5 -17 2 9 2 25 0 35 -3 9 -5 1 -5 -18z"></path><path id="p9lFuejnD" d="M3670 4765 c0 -8 8 -15 18 -15 14 0 14 -2 3 -9 -12 -8 -13 -20 -5 -65 6 -31 9 -58 7 -60 -2 -2 -25 3 -51 10 -81 25 -69 9 19 -23 46 -17 85 -30 86 -29 2 1 -6 34 -17 72 -11 38 -20 84 -20 101 0 26 -4 33 -20 33 -11 0 -20 -7 -20 -15z"></path><path id="pPstWFXVm" d="M3970 4720 c1 -8 10 -31 20 -50 l19 -35 -6 35 c-6 37 -33 78 -33 50z"></path><path id="pGFAz7b3b" d="M3400 4700 c25 -10 52 -19 60 -19 8 0 -5 9 -30 19 -25 10 -52 19 -60 19 -8 0 5 -9 30 -19z"></path><path id="pdJvgO2qY" d="M3831 4427 c-6 -6 -11 -16 -11 -22 0 -6 -9 -29 -20 -52 -10 -22 -21 -51 -24 -64 -3 -13 -12 -49 -21 -79 -8 -30 -18 -111 -22 -180 -5 -109 -3 -136 16 -210 25 -99 68 -192 106 -235 21 -23 24 -24 11 -5 -9 14 -19 32 -23 40 -3 8 -14 26 -24 40 -32 47 -68 190 -72 285 -4 95 6 208 23 259 5 17 19 62 31 99 12 37 25 70 29 72 4 3 41 -27 81 -66 79 -75 125 -110 204 -154 71 -40 180 -84 223 -89 20 -2 60 -9 87 -16 28 -6 113 -12 190 -12 173 0 320 24 463 74 86 30 203 19 287 -26 17 -9 35 -16 41 -16 7 0 40 -30 74 -67 67 -71 112 -154 131 -240 7 -32 18 -53 26 -53 17 0 17 22 -2 93 -21 81 -70 163 -140 232 -118 119 -291 163 -421 109 -70 -29 -220 -64 -306 -70 -48 -4 -88 -11 -88 -16 0 -5 -6 -6 -12 -1 -15 9 -16 9 -126 17 -85 7 -225 35 -278 57 -151 61 -228 111 -335 220 -64 65 -89 85 -98 76z"></path><path id="pCJxx4CAK" d="M5638 3692 c-15 -3 -18 -15 -18 -68 0 -49 3 -64 14 -64 10 0 16 19 21 65 4 36 6 67 4 69 -2 1 -12 1 -21 -2z"></path><path id="pab8mhsZ4" d="M4178 3525 c-84 -87 -107 -96 -175 -64 -70 33 -72 34 -32 6 92 -65 156 -45 262 82 15 18 40 36 55 41 l27 8 -32 1 c-28 1 -43 -10 -105 -74z"></path><path id="p138CUCgub" d="M4364 3528 c16 -21 30 -38 33 -38 8 0 -16 36 -38 55 -19 16 -18 13 5 -17z"></path><path id="pEBlRFj9u" d="M5596 3484 c-8 -22 -8 -24 8 -24 12 0 26 20 26 36 0 12 -29 2 -34 -12z"></path><path id="p1FArworGU" d="M4404 3471 c3 -4 10 -21 16 -36 6 -15 13 -25 16 -22 6 6 -23 67 -32 67 -3 0 -3 -4 0 -9z"></path><path id="pOGWfsMo3" d="M4440 3396 c0 -12 67 -126 99 -170 38 -51 141 -126 173 -126 28 0 13 17 -22 23 -41 9 -116 66 -130 99 -7 15 -21 35 -32 45 -11 10 -33 44 -49 76 -25 49 -39 68 -39 53z"></path><path id="pGmYL2obs" d="M5003 3354 c-19 -19 -17 -144 1 -144 16 0 26 71 17 123 -5 29 -8 32 -18 21z"></path><path id="pbX6eHcUC" d="M4970 3181 c0 -17 18 -21 24 -6 3 9 0 15 -9 15 -8 0 -15 -4 -15 -9z"></path><path id="pKWstrpwl" d="M4930 3135 c-16 -19 0 -19 26 0 16 12 16 14 3 15 -9 0 -22 -7 -29 -15z"></path></g></g></svg>