<svg version="1.2" xmlns="http://www.w3.org/2000/svg" viewBox="0 0 1200 700" width="1200" height="700"><style>.a{fill:#fefefe}.b{fill:#231f20}.c{fill:#7e2323}.d{fill:#4d3123}.e{fill:#c62039}.f{fill:#ce7d7e}.g{fill:#be1e2d}.h{fill:#3b2313}.i{fill:#431111}.j{fill:#e51e25}.k{opacity:.24;mix-blend-mode:multiply;fill:#7e4545}.l{opacity:.12;mix-blend-mode:multiply;fill:#ba8d72}.m{opacity:.24;mix-blend-mode:multiply;fill:#8c5a59}.n{opacity:.32;mix-blend-mode:multiply;fill:#996e4e}.o{fill:#ae1f23}.p{fill:#8c5a59}.q{fill:#090909}.r{fill:#fff}</style><path class="a" d="m421.7 614.1h-280.5v0.9h280.5z"/><path fill-rule="evenodd" class="b" d="m100.9 130.8c3.1-6.9 8.8-10.1 15.9-11.5 4.3-0.9 8.6-0.6 12.9-0.8 14.9-0.4 29.7-2.3 44.4-4.7 22.4-3.7 44.4-8.9 66.1-15.1q27.2-7.8 53.7-17.6c3.2-1.2 2.5-1.1 3.6 1.7 3.5 9.2 6.9 18.4 10.4 27.6 0.4 1.2 0.2 1.8-0.8 2.5-4.7 3-5.8 5.9-4.5 11.2 1.7 6.9 4.4 13.4 7 19.9 3.4 8.4 7.2 16.6 11 24.7 0.5 1.1 0.4 1.6-0.8 2q-21.5 7.1-42.9 14.2-16.2 5.4-32.4 10.8-33.4 11.1-66.8 22.2-24.6 8.1-49.2 16.3c-2.8 0.9-5.6 1.8-8.4 2.8-1.3 0.5-1.6 0-1.9-1.2-2.4-11.4-4.8-22.9-7.2-34.3q-5.8-27.1-11.5-54.2c-1.3-5.9-0.8-11.6 1.4-16.5zm17.6 15.3c3.8 1.8 8.1 0.2 9.9-3.5 1.7-3.7 0-8.1-3.8-9.8-3.7-1.7-8-0.2-9.7 3.5-1.8 3.8-0.2 8.1 3.6 9.8z"/><path fill-rule="evenodd" class="b" d="m459.1 61.1c-2.8 6.3-7.4 11.1-13.1 14.9-0.9 0.6-1.5 0.5-2.2-0.2-7.2-7.1-16.3-8.7-25.3-4-7.2 3.8-14.2 8-21.5 11.6-19.1 9.4-38.8 17.1-59.7 21.2-2.9 0.6-5.8 1.1-8.7 1.5-5.8 0.8-11.4 2-16.8 4.3-1 0.4-1.6 0.3-2-0.8q-5.3-14.5-10.8-28.9c-0.5-1.4 0.3-1.6 1.2-2q28.7-10.9 57.3-21.8c21.6-8.3 43.3-16.4 65.1-24.3 4.2-1.5 8.3-2.9 12.6-4.3 4.5-1.4 9-1.7 13.7-0.6 5.5 1.3 9.3 4.8 11.1 10.1 2.6 7.8 2.7 15.6-0.9 23.3zm-136.6 21.6c-1.1 2.5 0.1 5.6 2.6 6.8 2.5 1.2 5.7-0.1 6.9-2.7 1.1-2.6-0.1-5.6-2.7-6.7-2.6-1.1-5.6 0.1-6.8 2.6zm54.9-13c2.6 1.3 5.7 0.2 6.9-2.4 1.2-2.4 0.1-5.6-2.4-6.8-2.5-1.2-5.6-0.1-6.8 2.4-1.3 2.6-0.3 5.6 2.3 6.8zm57.1-28.9c-2.7-1.3-5.4-0.2-6.7 2.4-1.2 2.8-0.2 5.5 2.5 6.7 2.7 1.2 5.5 0.2 6.7-2.4 1.2-2.7 0.2-5.5-2.5-6.7z"/><path class="b" d="m119.5 241.3c0.3-0.5 0.8-0.6 1.2-0.7q26.7-8.8 53.3-17.7c12.5-4.1 25-8.3 37.5-12.5q36.1-11.9 72.1-23.9 18.6-6.1 37.2-12.3c2.1-0.7 2-0.7 3 1.3 0.9 1.9 1.7 3.8 2.7 5.6 0.6 1.2 0.3 1.6-0.9 2-6.1 2-12.2 4-18.3 6.1q-18.4 6.1-36.9 12.2-35.2 11.7-70.5 23.4-38.4 12.8-76.8 25.6c-1.4 0.5-1.8 0.2-2.1-1.2-0.4-2.2-0.9-4.5-1.4-6.7-0.1-0.4-0.1-0.9-0.1-1.2z"/><path class="c" d="m462 222.7c-97.2-6.2-228.3-4.6-346-3.4-34 0.3-93.4 2.3-96.7 3.7-0.8 1.4 27 2.7 46.4 3.3 40.5 1.3 94 0.9 133.2 1.8 59.9 1.3 135.1 0.8 194.3-0.5 26.2-0.6 56.9-1.2 72.5-3.1 4.5-0.6 2.7-1.4-3.7-1.8z"/><path class="d" d="m438.3 222.7c-2.1-0.1-4.3-0.2-6.4-0.3-12.9-0.7-24.9-1.5-39.2-1.9-10.2-0.3-21-0.2-31.3-0.4-10.6-0.2-20.8-0.5-31.4-0.7-8.3-0.2-16.6-0.4-24.9-0.5-8.6-0.2-17.6-0.1-26.4-0.1-15.7 0.1-31.3 0.1-47 0.1-7.3 0-14.4 0.1-21.7 0.1-6.7 0-13.6 0-20.3 0-12.6 0.1-24.6 0.3-37.1 0.5-11.2 0.2-21.7 0.6-33.1 0.7-10.4 0.1-20 0.1-30 0.5-4.1 0.1-7.8 0.3-12.1 0.4-9.9 0.2-18.8 0.5-28.1 0.9-5.3 0.2-16.3 0.6-15.8 1.3 0.7 0.9 9.7 1.2 17.3 1.5 12.1 0.5 22.8 1 35.8 1.2 9.1 0.2 18.2 0.4 27.4 0.5 26.5 0.3 52.4 0.7 78.5 1.1 10 0.2 20 0.2 30.1 0.3 8.1 0 16 0.1 24.1 0.2q11.2 0.1 22.4 0.1 8.3 0.1 16.6 0.1c4.5 0 7.6-0.1 11.8-0.2 10.9-0.2 22.1 0 33.1-0.3 7.1-0.1 14.1-0.2 21.5-0.2 15-0.1 30.7-0.1 45-0.6 10.4-0.3 20.6-0.7 31.1-1.1 7.8-0.2 23.6-0.5 26.1-1.3 1.2-0.4-2.3-0.9-5.1-1.2-3.1-0.3-6.9-0.5-10.9-0.7z"/><path class="e" d="m445.6 223.7c-2.5-0.6-12.1-1-18-1.2-9.7-0.5-19.6-1.1-30.5-1.4-6-0.1-12-0.3-18.3-0.3-16.6-0.3-33-0.6-49.5-0.9-17.4-0.3-34-0.6-52-0.6-14.8 0-30-0.1-44.7 0-9.6 0.1-19.4 0-29.1 0-10.7 0-21.5 0-32.2 0.1-6 0-12.2 0.2-18.1 0.3-8 0.2-16.2 0.3-24.3 0.5-25.9 0.5-55.4 0.8-77.5 2.2-4.3 0.2-8.8 0.6-8.3 1.1 0.6 0.7 8.8 0.9 15.6 1.1 7.7 0.3 15.7 0.5 23.7 0.6 7.2 0.1 15.9 0.1 22.7 0.4 6.8 0.2 12.5 0.4 20 0.5 7.5 0.1 15.1 0.1 22.6 0.2 17.9 0.3 36.1 0.6 54.3 0.8 12.3 0.2 24.9 0.1 37.2 0.2 17.8 0 35.5 0.1 53.4 0.1 15.9 0 31.4 0 47.1-0.4 8.7-0.2 17.5-0.3 26.3-0.5 10-0.1 18.8-0.2 28.8-0.2 10.3 0 22.8-0.5 32.5-0.8 7.4-0.2 18.6-0.6 18.9-1.4q0.1-0.2-0.6-0.4z"/><path class="f" d="m424.2 223.4c-8.4-0.7-26.6-1.3-31.8-1.4-26.3-1-55.5-1.2-83.5-1.5-17.3-0.2-34.4-0.3-51.6-0.3-8.9-0.1-18-0.1-26.8 0-23.3 0-46.3 0.1-69.6 0.3-15.8 0.2-31.8 0.6-47.1 1-11.8 0.3-24.1 0.5-34.7 1-3.3 0.2-9.4 0.3-10.7 0.7-3.5 0.9 27.2 1.3 33.4 1.5 11.3 0.5 24.1 0.7 36.2 0.8 30.6 0.4 61.5 0.4 91.9 0.7 12.4 0.2 24.6 0.3 37.1 0.3 7.6 0 15.3 0 22.9 0 7.9 0 15.8 0.1 23.8 0 23.3-0.2 46.6-0.5 69.7-0.7 4.6 0 9-0.2 13.5-0.2 6.5-0.1 10.8-0.3 16.5-0.5 4.6-0.3 11.3-0.2 14.3-0.7 2.1-0.3 0.3-0.6-3.5-1z"/><path class="g" d="m401.6 222.9c-23.7-0.8-47.8-1.2-73.1-1.4-22.2-0.2-44.5-0.2-66.7-0.4-8.6-0.1-17.1-0.1-25.7-0.1-14.3 0.1-28.7 0.1-43 0.1-15.6 0.1-31.3 0.3-46.7 0.5-11.8 0.2-24.7 0.4-35.8 0.8-4.9 0.2-15.9 0.7-7.9 1.2 3.1 0.1 5.4 0.1 8.9 0.2 4.1 0.1 8 0.3 12 0.4 5 0.2 10.3 0.3 15.5 0.4 12.3 0.3 25.3 0.2 37.9 0.2 16.4 0 32.9 0.3 49.2 0.4 17.1 0.1 34.8 0 52.1 0 17 0 34.3 0 51.4-0.1 16 0 32.1 0.2 48 0.1 7.5 0 14.4-0.1 21.5-0.3 4.5-0.2 15.1-0.4 16.1-0.9 1.1-0.6-8.5-0.9-12.8-1q-0.5-0.1-0.9-0.1z"/><path class="h" d="m361.9 222.6c-7.9-0.2-16-0.2-24-0.4-9.1-0.1-18.4-0.2-27.7-0.2-16.3-0.1-32.1-0.2-48.2-0.3-13.2-0.1-26.5-0.1-39.8-0.2-11.5 0-23.3 0.2-35 0.3-9.8 0-19.1 0.1-28.8 0.2-11 0.2-25.9 0.1-35.5 0.7-8.1 0.6 5.4 1.1 10.5 1.2 11.7 0.2 22.8 0 34.4 0 9-0.1 18.9 0.1 27.7 0.3 12.1 0.3 25.2 0.3 37.7 0.3 10.9 0.1 21.6 0 32.5 0 5.4 0 10.5-0.1 15.8-0.1 10.6-0.1 20.7 0.1 31.2 0.1 11.1 0 22.3 0 33.5 0 7.3 0 14.5 0 21.7-0.1 5.4-0.1 11 0 16.3-0.2 4-0.1 7.1-0.4 3.9-0.8-5.6-0.6-18.2-0.6-26.2-0.8z"/><path class="i" d="m349.1 223c-53.3-0.8-107.2-0.6-161.4-0.6-5.1 0-28.8-0.2-28.2 0.4 0.4 0.5 17.4 0.6 22.3 0.6 25.5 0.3 50.1 0.2 75.8 0.1 21.9 0 43 0.1 64.6 0.2 8 0 34.9 0.4 40.3-0.2-3.8-0.5-7.1-0.4-13.4-0.5z"/><path class="d" d="m228 222.6c-9-0.1-19.9-0.2-26.7-0.5 16.4-0.1 29.5 0.2 44.1 0.4 15.2 0.2 35.5-0.1 52-0.2-8.1 0.3-16.5 0.5-24.9 0.7 18.7-0.2 38.4 0.5 57.3 0.5-27.2-0.1-54.2 0.4-81.2 0.2-25.1-0.1-57-0.2-81.7 0.2 10.9-0.3 24.5-0.5 36.5-0.7 8-0.2 16.7-0.6 24.6-0.6z"/><path fill-rule="evenodd" class="j" d="m468.4 223.5v449.4h-449.4v-449.4z"/><g style="opacity:.63"><path class="k" d="m106.6 491.5c0.2 35.1-11.4 69-11.1 104.4 0.1 14.9 1.2 29.8 2.8 44.6q0.3 3.8 0.8 7.6v0.1c0.4 3.4 0.8 6.8 1.2 10.3 0.1 0.5 0.1 1 0.2 1.4 0.5 4.2 1 8.3 1.6 12.5h-83.1v-448.4h86.7c1.3 21 1.1 42 0.4 62.9v0.2c-1 31.9-3.1 63.7-2.7 95.8 0.1 6.8 0.3 13.6 0.6 20.4q0.6 10.1 1 20.3c0.7 17.1 1.2 34.3 1.4 51.4 0 0.1 0 0.1 0 0.1 0.1 5.5 0.2 10.9 0.2 16.4z"/><path class="l" d="m299.7 520.4c-0.1 15.2-1.8 30.8-4.1 46.4-0.1 0.6-0.2 1.2-0.3 1.9q-1.5 9.6-3.2 19c-2.3 13-4.8 25.9-7 38.5-1.6 8.7-2.4 16.6-2.4 24.3q0 0 0 0c-0.1 7.4 0.5 14.5 1.9 21.9h-103.4c0-0.2-0.1-0.3-0.1-0.5-0.1-0.4-0.1-0.7-0.2-1.1 0-0.1 0-0.2-0.1-0.3-1.8-9.4-3.6-18.7-5.3-28v-0.1q0 0 0 0c-1.2-6.3-2.2-12.7-3.3-19v-0.1q-0.1 0-0.1-0.1c-1.5-9.6-3-19.1-4.3-28.7-6.1-44.6-8.9-89.4-5.6-134.3 0.5-6.2 1.1-12.5 1.8-18.8q1.4-11.8 3.4-23.6c0.8-4.8 1.8-9.6 2.9-14.4 3.4-14.1 8-27.8 12.3-41.5 5.8-18.6 11.1-37.1 12.1-55.9 0.3-5.5 0.2-11.1-0.4-16.7v-0.2c-1.1-10.9-4-22-9.5-33.4-2-4.4-4.1-8.7-6-12.9-3-6.4-5.7-12.5-8.2-18.8h116.7q0 5.6-0.1 11.3c-0.8 32.1-5.1 64.4-7.2 96.7-1.2 19.1-1.6 38.2 0 57.1 0.3 5.2 0.9 10.3 1.7 15.4q0.4 3 0.9 5.9c5.5 33.3 15.3 65.9 16.9 99.6q0.3 5.2 0.2 10.4z"/><path class="m" d="m379.5 429.8c0 0.4 0 0.9 0 1.3-0.3 14.3-1.2 28.6-2.5 43-2.2 24.8-5.2 49.6-6.6 74.4-0.4 7.2-0.6 14.3-0.8 21.1-0.2 6.6-0.3 13.1-0.6 19.4 0 0 0 0 0 0.1-0.5 18.4-1.8 35.9-6.4 53.7-2.1 8.4-5 16.9-9 25.7q-0.2 0.4-0.4 0.8-0.7 1.5-1.5 3.1h-41.8q-4.6 0.3-8.9 0.5 0-0.2 0.1-0.5 0 0 0 0h-51.2c0.5-16.6 2.3-33.1 4.8-49.5 7.3-47.7 20.9-94.8 25.6-142.8 0.3-3 0.5-6 0.8-9.1 1.5-21.1-1-41.6-5.3-61.8-3.5-16.2-8-32.3-12.5-48.4-8.5-30.5-16.7-61.2-16.4-93.4q0-4.1 0.2-8.3c0.7-11.6 0.9-23.3 0.8-35.1h94.3c1.1 13.1 2.4 25.9 4.6 38.7 0.1 0.1 0.1 0.1 0 0.1 1.9 11 4.4 21.9 7.8 32.9q0.3 1.3 0.7 2.5c3 9.3 5.8 18.3 8.4 27.2 9.8 34.1 16.3 66.6 15.8 104.4z"/><path class="m" d="m468.4 224v297.9c-1.4 20.7-3.1 43.7-4.5 67.1-0.7 11.9-1.4 23.8-1.9 35.7-0.2 5.1-0.5 10.2-0.6 15.2-0.5 11.1-0.7 22-0.8 32.5h-51.8q1.2-5.4 2.5-10.9 0.2-0.9 0.4-1.8c1.3-5.8 2.8-11.6 4.4-17.4 2.2-8.3 4.7-16.6 7.4-24.8 10.9-32.5 3.2-94.3-4.1-138.5-1.7-10.6-3.4-20.2-4.8-28.2-14.8-82.7-2.5-170.7 3.3-226.8z"/><path class="c" d="m130.8 358.2c-0.4-27.3-8.8-93.7-12.1-134.2h11.3c-0.7 45 5.5 90.4 0.8 134.2z"/><path class="c" d="m315.6 224h15.9c-6 36.6-18.4 92-18.4 92-2.8-17.1 2.1-37.8 1.4-55.9-0.2-6.2 0.3-20.3 1.1-36.1z"/><path class="c" d="m226.6 224c-0.9 15.1-1.5 28.3-1.5 28.3-2.2-9.9-3-19.1-3.2-28.3z"/><path class="d" d="m49 224c0 8.6-0.2 16.4-0.7 22.8-0.3 4.9-0.8 8.9-1.4 12-3.7-7.9-2-23.6-2-34.8z"/><path class="n" d="m153.7 621.8c0.3 16.1-0.8 31.5-3.8 44.6 0 0.4-0.1 0.9-0.2 1.2-0.4 1.6-0.8 3.2-1.3 4.8h-20.6c-0.8-2.8-1.6-5.6-2.4-8.4-0.1-0.5-0.2-0.9-0.4-1.4-1.7-6.4-3.4-12.8-5.8-18.7-2.8-7.3-6.5-14-12.1-19.3-4.2 4.4-6.9 9.9-8.8 15.9-0.7 2-1.3 4.1-1.9 6.2-0.9 3.5-1.7 7.1-2.4 10.7-0.2 0.5-0.2 0.9-0.4 1.4-1 4.6-2 9.2-3.4 13.6h-14.9c-2.6-5.5-4.2-11.5-5.2-17.9q-0.2-0.8-0.3-1.7c-1.6-12.1-1.2-25.4-1.1-38 0-7.1 0-13.9-0.7-20.1q-0.1-1-0.2-2c-3.9-36.5-16-70.9-17.3-108.8-1.1-32-0.9-65.9 1-100.1 1.1-19.5 2.7-39 4.8-58.4 3.2-29.2 7.7-58 13.5-85.3 35.6 34.1-24.8 139.6 26.6 140.4h0.1c1.9 0.1 3.9 0 6.1-0.3 0.3 0.9 0.5 1.8 0.8 2.7 2.9 9.7 6 19.2 9.2 28.7q1.8 5.2 3.7 10.4c10.1 29.4 20.6 58.5 25.3 90 3.9 25.7 11.7 70 12.1 109.8z"/><path class="n" d="m290.8 566.8c-0.1 0.5-0.2 1-0.3 1.5q-1.7 8.2-3.7 16.4c-4.1 16.5-9.4 32.8-15.4 48.8-4.8 13.2-10.1 26.1-15.7 38.9h-22.2c-0.5-12 0-24.7 0.7-36.7v-0.1c0.6-10 1.3-19.6 1.7-28 1.2-25.8 5.9-50.8-0.6-77.4-2.3-9.6-6.2-18.8-10-27.9-3.4-8.3-6.6-16.6-8.5-25.5q-0.9-3.8-1.3-7.8c-1.5-14.3-1.8-29.8-1.1-46.1 2-49.9 13.2-106.6 27.7-155.5 4.5-15.4 9.3-30 14.3-43.4h6.7c-0.2 1.8-0.4 3.5-0.6 5.2-2.5 18.6-5.9 37.3-4.7 54.7 1.3 18.5 9.7 36.2 13.8 54.1 0.3 1.4 0.6 2.7 0.8 4-0.1 16.6 0.7 31.9 2.8 47.1 0.6 5 1.4 9.9 2.3 14.9 2.3 12.5 5.4 25.3 9.4 39.2 4.8 16.2 7.7 32.4 8.9 48.4 2 25.5-0.1 50.6-5 75.2z"/><path class="n" d="m447.1 423c-0.8 21.7-1.7 44.2-3.1 66.7-1.8 28.9-4.5 57.8-9.1 85-2.1 11.9-3.9 33.1-7 55.4-0.9 6.1-1.8 12.3-2.9 18.3-0.1 0.8-0.3 1.5-0.4 2.3-0.9 4.6-1.8 9.2-2.8 13.7h-26.6c-0.2-2.6-0.4-5.3-0.5-8 0-0.4-0.1-0.9-0.1-1.3-0.3-6.7-0.4-13.5 0.1-20.5 0.1-1.7 0.3-3.5 0.5-5.3q0 0 0-0.1 0.3-2.7 0.7-5.4 2.1-14.1 3.4-28.1c2.5-24.8 3.4-49.6 3.8-75.5-1.4 10.5-3.6 22.9-6.8 36-3.2 13.6-7.4 27.8-12.6 41-0.6 1.5-1.2 3-1.8 4.5-5.4 12.9-11.8 24.5-19.3 33.1-0.8 1-1.7 1.9-2.6 2.9 1.3-8.3 2.4-16.7 3.3-25.1 0-0.1 0-0.2 0-0.2 1.6-14.3 2.6-28.8 3.2-43.5 2.2-48.4-0.2-98.3-4.1-146.4q-0.9-10-1.2-19.9-0.4-10.8-0.4-21.5c0.1-21.1 1.3-42.3 2.9-63.7 0.1-1.5 0.2-2.9 0.3-4.3 2.5-33.2 17.9-64.4 20-97.1 0-0.1 0.1-0.3 0.1-0.5 0 0.2 0.1 0.4 0.1 0.5 6.2 26.5-12.5 60.2-0.8 84.6 16.4-16.2 11.3-53.4 16.2-84.6h9.4c-0.5 34.4-0.3 68.9-5.1 101.1-3.5 23.8-12.6 46.5-13.5 70.5-0.8 21.2 7.6 39.5 8 59.6q0.2 4.3-0.3 8.8 2.4-1.5 4.8-3.3c3.9-2.9 7.8-6.4 11.7-9.9 3.8-3.4 7.7-6.9 11.6-9.9 5.9-4.6 12-8.2 18.5-9.5q1.2-0.3 2.4-0.4z"/><path class="n" d="m208.3 606.8c-0.3 17.3-2.3 34.4-6.5 51.3q-0.4 2-0.9 4-1.4 5.2-3.1 10.3h-17.4c0-0.2 0.1-0.4 0.1-0.6 0.1-0.3 0.2-0.7 0.2-1q0.1-0.2 0.1-0.3c1.4-5.5 2.8-11 4.3-16.5 3.7-13.9 7.2-27.7 8.3-41.2 1-12.6 0.8-25-0.5-37.2-1.3-12.6-3.6-25-6.8-37.4q0-0.1 0-0.3-2.5-9.5-5.5-19.2c-5.8-18.7-13.7-38.4-18.4-58.5-2.6-11.6-4.3-23.4-3.7-35.2 0.4-9.1 2-18.1 4.1-27.2 1.7-7.1 3.7-14.2 5.7-21.4 5.7-20 11.7-40.2 11-60.9 1 17 2.5 31.3 3.3 46.4 0.5 10.4 0.7 21.3 0.2 33.8-0.2 5-0.3 10.1-0.4 15.1-0.6 32.6 1.9 64.5 10.9 94.8q2.8 9.6 5.1 19.2c6.8 27.5 10.5 55 9.9 82z"/><path class="n" d="m330.3 657.1c-0.2 4.5-0.4 9-0.7 13.5q0.1 0.3 0 0.6c0 0.4 0 0.8 0 1.2h-19.7q-4.6 0.3-8.9 0.5 0-0.2 0.1-0.5 0 0 0 0c0.9-4.4 2.1-8.8 3.4-13.1 6.8-23.3 17.3-45.8 19.7-69.8 6.7 19.5 7.1 43.4 6.1 67.6z"/><path class="n" d="m28.1 612.1c-0.9 5.3-1.9 10.5-2.6 15.8-0.5 3.5-1 7.1-1.2 10.6 0 0.1 0 0.2 0 0.4-0.8 11-0.5 22.2 0.3 33.5h-5.6v-126.8q2 2.5 3.6 5.1c12.6 19.4 9.3 40.3 5.5 61.4z"/><path class="n" d="m465.4 224h3v154.6c-6.9-7.7-16.2-12.8-28-12.2-4.5-34.2 11.5-72.6 17.4-106.5 1.9-10.8 4.4-23.1 7.6-35.9z"/><path class="n" d="m19.1 436.7q0 0.1-0.1 0.2v-34.4c1.3 12.2 6.3 26.3 0.1 34.2z"/><path class="n" d="m20.7 335c-0.3 17.2-1.2 33.3-1.7 45.9v-102c1.9 17.9 2.1 37.6 1.7 56.1z"/><path class="o" d="m80.2 648.9c-0.8-6.6-1.7-12.7-2.6-18.5-2.3-13.6-5.4-25.5-9.8-37.7-2.5-7.2-5.5-14.4-9-22.1q-0.1 1.1-0.6 2.4c-0.9 3.5-3.2 8-5.3 12.2-2.2 4.5-4.3 8.5-4.8 10.5-1.3-63.4-4.5-126.5-8.4-190.4-0.9-14.1-1.5-28.3-1.9-42.5-0.8-22.9-1.3-45.8-2.8-68.4-1.5-24.3 4.1-47.1 6.5-70.4h3.8c0.9 7.7 2 15.3 3 22.8 3.7 25.8 7.5 51.2 8 78.3v0.3c0.5 21.9 0.3 43.8 0.6 65.6 0.2 17.6 0.6 35.1 1.6 52.4 4 64.6 18 126.9 21.1 189.3q0.5 8.1 0.6 16.2z"/><path class="o" d="m130.4 585.3c-22.2-65.3-27.5-137.8-34.4-209-3.4-36.2-14.1-110.9 2-142.7 15.1 65.3 8.5 140.3 17.6 205.1 5.8 41.4 35.8 112.7 17.9 151.6 0.8-2-4.7-3.7-3.1-5z"/><path class="o" d="m234.9 659.7c-3.4-3-6.1-6.7-8.4-11-18.5-33.9-6.8-102.9-25-136.8-1.5 3.9-2.5 8.2-3.1 12.9-2.6 23.1 5.8 54.3 9.9 82 3.1 20.6 3.8 39.2-4.3 51.3-0.9 1.4-1.9 2.8-3.1 4-1 1-2.1 2-3.2 2.9q0.2-3.5 0.3-7c1.1-25.7-0.9-54.2-5.1-82.4-1.8-12.6-4.1-25.2-6.8-37.4q0-0.1 0-0.3c-3.4-15.7-7.4-30.8-11.7-44.8-6.2-19.7-9.3-36-10.4-51.7-0.9-13.7-0.2-27 1.3-41.6 0.8-7.3 1.9-15.1 3-23.4 0.7-5 1.5-10.3 2.3-15.9 5.5-37.5 5.7-78.1 8.2-117.7 0.3-6.3 0.7-12.6 1.3-18.8h13.3c0.2 21.8 0.5 43.5 0.9 65.1v0.2q0.2 8.4 0.4 16.7c0.8 37.9 2.3 75.5 4.7 112.2 1.3 18.2 2.7 36.3 4.5 54 7.9-1.8 13.6 0.1 17.7 4.6 5 5.6 7.5 15 8.5 25.5 1.9 18.6-0.7 40.8-1.6 51.8-2.4 30.2 4.8 57.1 6.4 86 0.3 6.4 0.4 12.9 0 19.6z"/><path class="o" d="m300.6 491.6c-0.3 6.2-0.7 12.3-1.1 18.4-1.4 19.8-3.3 39.3-4.2 58.3 0 0.1 0 0.3 0 0.4-0.5 11.7-0.6 23.3 0 34.7-1.2-5.1-2.3-10.3-3.2-15.7q-0.3-1.5-0.5-3c-5.6-33.2-6.8-70.5-11.3-104.6q-0.3-2.2-0.6-4.4c-3-20.8-6.1-41.8-9.2-63.1-2.5-17.2-5-34.5-7.2-51.8-0.5-3.7-1-7.4-1.4-11.1-3.2-25.6-4.8-81.4 5.4-120.5 0.4-1.8 0.9-3.5 1.4-5.2h19.6c-0.3 3.8-0.7 7.5-1.1 11.3-3.2 26.5-9.3 53-8.5 78.3q0.3 9.3 1.3 18.4c2.5 21.3 7.7 42.1 12.4 62.8 1.4 6.3 2.8 12.6 4 19 5.1 26.2 5.5 52.3 4.2 77.8z"/><path class="o" d="m396.3 638.1c-0.5 1.6-1 3.1-1.6 4.5-1.1 2.7-2.4 5-3.9 6.9-1.6-6.4-2.8-12.7-3.8-19.2-1.3-8.3-2.3-16.7-3.3-25.1-1.5-14.3-2.9-28.7-5.7-42.9-3.8 1.4-6.5 4-8.4 7.3-1.3 2.1-2.2 4.6-3.1 7.3-3.1 10-3.8 22.8-8.9 31.4-12.3-12.4-1.2-82.8-0.9-104.7 0.4-33.3-8.2-62-8-95.7q0.1-4.1 0-8.2c-0.5-36-5.4-71.9-3.3-108.8 0.4-7.9 0.8-17.6 1.4-28.1 0.1 0 0.1 0 0-0.1 0.8-12.2 1.8-25.6 3.5-38.7h9.1c-3.1 23.8-4.5 47.9-4.8 71.7q-0.1 4.5-0.1 8.9c-0.2 27.7 3.2 56.9 6.3 84.5q0.9 6.8 1.6 13.6 0.6 5.2 1.4 10.5c3.4 20 9.8 40.6 13.2 60.9 1.9 11.1 2.9 22.1 2.1 32.9-1.2 16 13.3 16.4 15.2 37.2 0.4 5.6 1.3 12.4 2 20 1.4 12.1 2.7 26.1 3 39.5 0.3 12.8-0.3 25-3 34.4z"/><path class="o" d="m442 496.5c-2.4 15.8-6.7 28.9-13.5 36.5-0.5-15.7-0.7-31.2-0.9-46.7-0.3-15.1-0.6-30.2-1.4-45.4-0.5-10.6-1.3-21.1-2.4-31.7-3.3-32.7 2-61.6 1.9-95-0.2-34.1-6.2-60.9-1.2-90.2h4.1c-3.5 43.1 5.8 96.6 9.8 130.5 2.1 17.5 5.2 46.8 6.3 76.9 0.8 22.7 0.4 45.9-2.7 65.1z"/><path class="p" d="m309.9 672.4q-4.6 0.3-8.9 0.5 0-0.2 0.1-0.5 0 0 0 0z"/><path class="p" d="m384.1 223.5c0 0.2 0.1 0.4 0.1 0.5h-0.2c0-0.1 0.1-0.3 0.1-0.5z"/></g><path class="q" d="m524.8 594v-141.7h36.6v51.7l52.7-51.7h42.4l-68.3 67.1 75.3 74.6h-45.7l-56.4-55.8v55.8zm214.8-47.8h-17.7q-10.6 0-16 3.6-5.3 3.6-5.3 10.6 0 6.5 4.2 10.2 4.4 3.6 12.1 3.6 9.6 0 16.1-6.9 6.6-6.9 6.6-17.2zm34.2-12.9v60.7h-34.2v-15.8q-6.9 9.7-15.4 14.2-8.6 4.3-20.8 4.3-16.5 0-26.9-9.5-10.2-9.7-10.2-25.1 0-18.7 12.8-27.4 12.9-8.8 40.4-8.8h20.1v-2.6q0-8.1-6.4-11.8-6.4-3.8-19.8-3.8-10.9 0-20.3 2.2-9.4 2.2-17.5 6.6v-26q10.9-2.6 21.9-3.9 11-1.5 22-1.5 28.8 0 41.5 11.4 12.8 11.3 12.8 36.8zm103.8-30v-57h34.2v147.7h-34.2v-15.4q-7 9.4-15.5 13.8-8.4 4.3-19.5 4.3-19.7 0-32.3-15.5-12.6-15.7-12.6-40.3 0-24.5 12.6-40.1 12.6-15.7 32.3-15.7 11 0 19.4 4.5 8.6 4.4 15.6 13.7zm-22.4 68.8q10.9 0 16.6-8 5.8-8 5.8-23.2 0-15.1-5.8-23.1-5.7-8-16.6-8-10.8 0-16.6 8-5.7 8-5.7 23.1 0 15.2 5.7 23.2 5.8 8 16.6 8zm154.4-25.9h-17.7q-10.6 0-16 3.6-5.3 3.6-5.3 10.6 0 6.4 4.2 10.1 4.4 3.7 12.1 3.7 9.6 0 16.1-6.9 6.6-6.9 6.6-17.3zm34.2-12.8v60.7h-34.2v-15.8q-6.9 9.7-15.4 14.2-8.6 4.3-20.8 4.3-16.5 0-26.9-9.6-10.2-9.6-10.2-25 0-18.7 12.8-27.4 12.9-8.8 40.4-8.8h20.1v-2.6q0-8.1-6.4-11.8-6.4-3.8-19.8-3.8-10.9 0-20.3 2.2-9.4 2.2-17.5 6.5v-25.9q10.9-2.6 21.9-4 11-1.4 22-1.4 28.8 0 41.5 11.4 12.8 11.3 12.8 36.8zm31.5 60.7v-106.3h33.9v106.3zm0-120v-27.7h34v27.7z"/><path class="q" d="m527.8 440v-141.7h36.6v141.7zm150.3-108.1l0.1 30.7q-4.4-2-8.9-3-4.4-1-8.8-1-13.1 0-20.2 8.4-7.1 8.4-7.1 24v49h-33.9v-106.3h33.9v17.5q6.6-10.5 15-15.2 8.6-4.9 20.4-4.9 1.8 0 3.7 0.2 2 0.1 5.8 0.6zm81.5 60.3h-17.7q-10.6 0-16 3.6-5.3 3.6-5.3 10.6 0 6.5 4.2 10.2 4.4 3.6 12.1 3.6 9.6 0 16.1-6.9 6.6-6.9 6.6-17.2zm34.2-12.9v60.7h-34.2v-15.8q-6.9 9.7-15.4 14.2-8.6 4.3-20.8 4.3-16.5 0-26.9-9.5-10.2-9.7-10.2-25.1 0-18.7 12.8-27.4 12.9-8.8 40.4-8.8h20.1v-2.6q0-8.1-6.4-11.8-6.4-3.8-19.8-3.8-10.9 0-20.3 2.2-9.4 2.2-17.5 6.6v-26q10.9-2.6 21.9-3.9 11-1.5 22-1.5 28.8 0 41.5 11.4 12.8 11.3 12.8 36.8zm32.5 60.7v-106.3h33.9v106.3zm0-120v-27.7h34v27.7zm151.9 17v27.7q-6.9-4.7-13.9-7-7-2.3-14.5-2.3-14.2 0-22.2 8.4-7.9 8.2-7.9 23.1 0 14.9 7.9 23.3 8 8.2 22.2 8.2 8 0 15.1-2.3 7.2-2.4 13.3-7v27.8q-8 2.9-16.2 4.4-8.2 1.4-16.4 1.4-28.8 0-45-14.7-16.3-14.8-16.3-41.1 0-26.3 16.3-41 16.2-14.8 45-14.8 8.3 0 16.4 1.5 8.1 1.5 16.2 4.4zm136 38.3v64.7h-34.2v-10.5-38.9q0-13.9-0.6-19.1-0.6-5.3-2.1-7.7-2-3.3-5.4-5.1-3.5-1.9-7.8-1.9-10.7 0-16.7 8.2-6.1 8.2-6.1 22.7v52.3h-34v-147.7h34v57q7.7-9.3 16.3-13.7 8.7-4.5 19.1-4.5 18.4 0 27.9 11.3 9.6 11.3 9.6 32.9zm32.1 64.7v-106.3h34v106.3zm0-120v-27.7h34v27.7z"/><path class="q" d="m513.1 622.7h6.2v20.3h3v-20.3h6.2v-2.5h-15.4zm20.3 11.4c0 5.5 3.7 9.3 8.5 9.3 3.3 0 5.6-1.7 6.7-3.6v3.3h3v-17.9h-3v3.3c-1.1-1.9-3.4-3.6-6.7-3.6-4.8 0-8.5 3.6-8.5 9.2zm15.2 0c0 4.2-2.9 6.7-6.1 6.7-3.3 0-6.1-2.5-6.1-6.7 0-4.2 2.8-6.6 6.1-6.6 3.2 0 6.1 2.5 6.1 6.6zm23.8 4.1c-0.1-6.4-10.5-4.1-10.5-8.3 0-1.4 1.3-2.5 3.5-2.5 2.3 0 3.7 1.3 3.8 3.1h3c-0.2-3.5-2.8-5.6-6.7-5.6-4 0-6.6 2.2-6.6 5 0 6.7 10.6 4.3 10.6 8.3 0 1.5-1.3 2.7-3.7 2.7-2.5 0-4-1.3-4.2-3.1h-3.1c0.2 3.3 3.2 5.6 7.4 5.6 3.9 0 6.5-2.2 6.5-5.2zm7.8 0c0 3.6 1.8 4.9 4.9 4.9h2.7v-2.5h-2.2c-1.8 0-2.5-0.7-2.5-2.4v-10.6h4.7v-2.4h-4.7v-4.5h-2.9v4.5h-2.4v2.4h2.4zm21.9-10.7c3.1 0 5.7 1.9 5.7 5.4h-11.3c0.3-3.5 2.7-5.4 5.6-5.4zm8.4 10.1h-3.2c-0.7 1.9-2.4 3.3-5 3.3-3.1 0-5.6-2-5.9-5.6h14.3c0.1-0.6 0.1-1.1 0.1-1.8 0-4.9-3.4-8.6-8.5-8.6-5.3 0-8.9 3.6-8.9 9.3 0 5.6 3.8 9.2 8.9 9.2 4.4 0 7.3-2.5 8.2-5.8zm33.8-0.7c0-8.4-12.3-4.7-12.3-10.6 0-2.5 2-3.7 4.4-3.7 2.8 0.1 4.2 1.8 4.4 3.3h3.3c-0.4-3.4-3.2-5.8-7.6-5.8-4.5 0-7.5 2.5-7.5 6.3 0 8.4 12.3 4.5 12.3 10.7 0 2.1-1.7 3.7-4.6 3.7-3.1 0-4.5-1.8-4.7-3.7h-3.1c0 3.7 3.3 6.3 7.8 6.3 5 0 7.6-3.2 7.6-6.5zm7.9 1.3c0 3.6 1.8 4.9 4.9 4.9h2.7v-2.5h-2.2c-1.8 0-2.5-0.6-2.5-2.4v-10.5h4.7v-2.5h-4.7v-4.5h-2.9v4.5h-2.4v2.5h2.4zm12.2-4.1c0 5.5 3.7 9.3 8.5 9.3 3.3 0 5.6-1.7 6.7-3.6v3.3h3v-17.9h-3v3.3c-1.1-1.9-3.4-3.6-6.7-3.6-4.8 0-8.5 3.6-8.5 9.2zm15.2 0c0 4.2-2.9 6.7-6.1 6.7-3.3 0-6.1-2.5-6.1-6.7 0-4.2 2.8-6.6 6.1-6.6 3.2 0 6.1 2.5 6.1 6.6zm13.9-0.7c0-4.2 2.1-5.5 5-5.5h0.8v-3c-2.9 0-4.8 1.2-5.8 3.2v-2.9h-3v17.9h3zm12.7 4.8c0 3.6 1.8 4.9 4.9 4.9h2.7v-2.5h-2.2c-1.8 0-2.5-0.6-2.5-2.4v-10.5h4.7v-2.5h-4.7v-4.5h-2.9v4.5h-2.4v2.5h2.4zm27.2 0c-0.1-6.4-10.5-4.1-10.5-8.3 0-1.5 1.3-2.5 3.5-2.5 2.3 0 3.7 1.3 3.8 3.1h3c-0.2-3.5-2.8-5.6-6.7-5.6-4 0-6.6 2.2-6.6 5 0 6.6 10.6 4.3 10.6 8.3 0 1.5-1.3 2.6-3.7 2.6-2.5 0-4-1.3-4.2-3h-3.1c0.2 3.3 3.2 5.6 7.4 5.6 3.9 0 6.5-2.3 6.5-5.2zm32.7 4.9h3v-22.8h-3v10h-11.6v-10h-3v22.8h3v-10.4h11.6zm19-15.6c3.1 0 5.7 1.9 5.7 5.4h-11.3c0.3-3.5 2.7-5.4 5.6-5.4zm8.4 10.1h-3.2c-0.7 2-2.4 3.3-5 3.3-3.1 0-5.6-2-5.9-5.6h14.3c0.1-0.6 0.1-1.1 0.1-1.8 0-4.9-3.4-8.5-8.5-8.5-5.3 0-8.9 3.5-8.9 9.2 0 5.7 3.8 9.2 8.9 9.2 4.4 0 7.3-2.5 8.2-5.8zm10-4.2c0-4.1 2.1-5.4 5-5.4h0.8v-3.1c-2.9 0-4.8 1.3-5.8 3.3v-2.9h-3v17.8h3zm19.6-5.9c3.1 0 5.7 1.9 5.7 5.4h-11.3c0.3-3.5 2.7-5.4 5.6-5.4zm8.4 10.2h-3.2c-0.7 1.9-2.4 3.3-5 3.3-3.1 0-5.6-2-5.9-5.7h14.3c0.1-0.6 0.1-1.1 0.1-1.8 0-4.9-3.4-8.5-8.5-8.5-5.3 0-8.9 3.6-8.9 9.2 0 5.7 3.8 9.3 8.9 9.3 4.4 0 7.3-2.6 8.2-5.8z"/><g style="opacity:.76"><path class="r" d="m55.2 530v-81.4h21v29.7l30.3-29.7h24.4l-39.2 38.6 43.2 42.8h-26.3l-32.4-32.1v32.1zm122.7-27.5h-10.2q-6.1 0-9.2 2.1-3 2.1-3 6.1 0 3.7 2.4 5.8 2.5 2.1 6.9 2.1 5.5 0 9.3-3.9 3.8-4 3.8-9.9zm19.6-7.4v34.8h-19.6v-9q-4 5.5-8.9 8.1-4.9 2.5-11.9 2.5-9.5 0-15.4-5.5-5.9-5.6-5.9-14.4 0-10.7 7.3-15.7 7.5-5.1 23.3-5.1h11.5v-1.5q0-4.6-3.7-6.7-3.6-2.2-11.4-2.2-6.2 0-11.6 1.2-5.4 1.3-10.1 3.8v-14.9q6.3-1.5 12.6-2.3 6.3-0.8 12.7-0.8 16.5 0 23.8 6.5 7.3 6.5 7.3 21.2zm60.4-17.3v-32.7h19.6v84.8h-19.6v-8.8q-4 5.4-8.9 7.9-4.8 2.5-11.2 2.5-11.3 0-18.5-8.9-7.3-9-7.3-23.1 0-14.2 7.3-23.1 7.2-9 18.5-9 6.3 0 11.2 2.6 4.9 2.5 8.9 7.8zm-12.9 39.5q6.3 0 9.6-4.5 3.3-4.6 3.3-13.3 0-8.8-3.3-13.3-3.3-4.6-9.6-4.6-6.2 0-9.5 4.6-3.3 4.5-3.3 13.3 0 8.7 3.3 13.3 3.3 4.5 9.5 4.5zm87.9-14.8h-10.2q-6.1 0-9.2 2-3 2.1-3 6.1 0 3.7 2.4 5.9 2.5 2 6.9 2 5.5 0 9.3-3.9 3.8-4 3.8-9.9zm19.6-7.4v34.9h-19.6v-9.1q-4 5.6-8.9 8.1-4.9 2.6-11.9 2.6-9.5 0-15.4-5.6-5.9-5.5-5.9-14.3 0-10.8 7.3-15.8 7.5-5 23.3-5h11.5v-1.5q0-4.7-3.7-6.8-3.6-2.2-11.4-2.2-6.2 0-11.6 1.3-5.4 1.2-10.1 3.7v-14.9q6.3-1.5 12.6-2.2 6.3-0.9 12.7-0.9 16.5 0 23.8 6.6 7.3 6.5 7.3 21.1zm18.9 34.9v-61.1h19.5v61.1zm0-68.9v-16h19.5v16z"/><path class="r" d="m57.2 442v-81.4h21v81.4zm85.5-62.1v17.7q-2.5-1.2-5.1-1.8-2.5-0.6-5.1-0.6-7.5 0-11.6 4.9-4 4.8-4 13.8v28.1h-19.5v-61.1h19.5v10.1q3.7-6 8.6-8.7 4.9-2.8 11.7-2.8 1 0 2.1 0.1 1.2 0 3.4 0.3zm47.2 34.6h-10.2q-6.1 0-9.2 2.1-3 2.1-3 6.1 0 3.7 2.4 5.8 2.5 2.1 6.9 2.1 5.5 0 9.3-3.9 3.8-4 3.8-9.9zm19.6-7.4v34.8h-19.6v-9q-4 5.5-8.9 8.1-4.9 2.5-11.9 2.5-9.5 0-15.4-5.5-5.9-5.6-5.9-14.4 0-10.7 7.3-15.7 7.5-5.1 23.3-5.1h11.5v-1.5q0-4.6-3.7-6.7-3.6-2.2-11.4-2.2-6.2 0-11.6 1.2-5.4 1.3-10.1 3.8v-14.9q6.3-1.5 12.6-2.3 6.3-0.8 12.7-0.8 16.5 0 23.8 6.5 7.3 6.5 7.3 21.2zm17.9 34.8v-61h19.5v61zm0-68.9v-15.9h19.5v15.9zm88.3 9.8v15.9q-3.9-2.7-8-4-4-1.3-8.3-1.3-8.1 0-12.7 4.8-4.5 4.7-4.5 13.3 0 8.5 4.5 13.3 4.6 4.8 12.7 4.8 4.6 0 8.7-1.4 4.1-1.4 7.6-4v15.9q-4.5 1.7-9.3 2.6-4.7 0.8-9.4 0.8-16.5 0-25.9-8.4-9.3-8.5-9.3-23.6 0-15.1 9.3-23.6 9.4-8.5 25.9-8.5 4.8 0 9.4 0.9 4.7 0.8 9.3 2.5zm78.1 22v37.1h-19.6v-6-22.3q0-8-0.4-11-0.4-3-1.2-4.4-1.2-1.9-3.1-3-2-1.1-4.5-1.1-6.1 0-9.6 4.8-3.5 4.7-3.5 13v30h-19.5v-84.8h19.5v32.7q4.4-5.3 9.4-7.8 4.9-2.6 10.9-2.6 10.6 0 16.1 6.5 5.5 6.5 5.5 18.9zm17.6 37.1v-61h19.5v61zm0-68.9v-15.9h19.5v15.9z"/><path fill-rule="evenodd" class="a" d="m459.1 552.9v0.7h-224v-0.7z"/><path class="r" d="m47.6 547.3h3.6v11.7h1.7v-11.7h3.6v-1.4h-8.9zm12.2 6.5c0 3.2 2.1 5.4 4.9 5.4 1.9 0 3.2-1 3.8-2.1v1.9h1.7v-10.3h-1.7v1.9c-0.6-1.1-1.9-2-3.8-2-2.8 0-4.9 2-4.9 5.2zm8.7 0.1c0 2.4-1.6 3.8-3.5 3.8-1.9 0-3.4-1.4-3.4-3.9 0-2.4 1.5-3.8 3.4-3.8 1.9 0 3.5 1.5 3.5 3.9zm14.3 2.3c0-3.7-6-2.3-6-4.8 0-0.8 0.7-1.4 2-1.4 1.4 0 2.2 0.8 2.2 1.8h1.7c-0.1-2-1.6-3.2-3.8-3.2-2.3 0-3.8 1.3-3.8 2.8 0 3.9 6.1 2.5 6.1 4.8 0 0.9-0.8 1.5-2.1 1.5-1.5 0-2.4-0.7-2.5-1.7h-1.7c0.1 1.9 1.8 3.2 4.2 3.2 2.3 0 3.7-1.3 3.7-3zm4 0c0 2.1 1.1 2.8 2.9 2.8h1.5v-1.4h-1.2c-1.1 0-1.5-0.4-1.5-1.4v-6.1h2.7v-1.4h-2.7v-2.6h-1.7v2.6h-1.3v1.4h1.3zm12-6.2c1.8 0 3.3 1.2 3.3 3.2h-6.5c0.2-2 1.5-3.2 3.2-3.2zm4.8 5.9h-1.8c-0.4 1.1-1.4 1.9-2.9 1.9-1.8 0-3.2-1.2-3.3-3.2h8.2c0-0.4 0-0.7 0-1.1 0-2.8-1.9-4.9-4.9-4.9-3 0-5.1 2-5.1 5.3 0 3.3 2.2 5.3 5.1 5.3 2.5 0 4.2-1.4 4.7-3.3zm19.3-0.4c0-4.9-7-2.7-7-6.1 0-1.4 1.1-2.2 2.5-2.1 1.6 0 2.4 1 2.5 1.9h1.9c-0.2-2-1.8-3.4-4.3-3.4-2.6 0-4.4 1.5-4.4 3.6 0 4.9 7.1 2.6 7.1 6.2 0 1.2-1 2.1-2.6 2.1-1.8 0-2.6-1-2.7-2.1h-1.8c0 2.1 1.9 3.6 4.5 3.6 2.8 0 4.3-1.9 4.3-3.7zm4.9 0.7c0 2.1 1.1 2.9 2.9 2.9h1.5v-1.5h-1.2c-1.1 0-1.5-0.3-1.5-1.4v-6h2.7v-1.4h-2.7v-2.6h-1.7v2.6h-1.3v1.4h1.3zm7-2.4c0 3.2 2.1 5.4 4.9 5.4 1.9 0 3.2-1 3.8-2.1v1.9h1.7v-10.3h-1.7v1.9c-0.6-1.1-1.9-2.1-3.8-2.1-2.8 0-4.9 2.1-4.9 5.3zm8.7 0c0 2.5-1.6 3.9-3.5 3.9-1.9 0-3.4-1.5-3.4-3.9 0-2.4 1.5-3.8 3.4-3.8 1.9 0 3.5 1.5 3.5 3.8zm8.7-0.4c0-2.4 1.2-3.1 2.8-3.1h0.5v-1.8c-1.7 0-2.8 0.7-3.3 1.9v-1.7h-1.8v10.3h1.8zm6.6 2.8c0 2 1.1 2.8 2.9 2.8h1.5v-1.5h-1.2c-1.1 0-1.5-0.3-1.5-1.3v-6.1h2.7v-1.4h-2.7v-2.6h-1.7v2.6h-1.3v1.4h1.3zm16 0c0-3.6-6-2.3-6-4.8 0-0.8 0.7-1.4 2-1.4 1.4 0 2.2 0.8 2.2 1.8h1.7c-0.1-2-1.6-3.2-3.8-3.2-2.3 0-3.8 1.3-3.8 2.8 0 3.9 6.1 2.5 6.1 4.8 0 0.9-0.8 1.5-2.1 1.5-1.5 0-2.4-0.7-2.5-1.7h-1.7c0.1 1.9 1.8 3.2 4.2 3.2 2.3 0 3.7-1.3 3.7-3zm19 2.8h1.7v-13h-1.7v5.7h-6.6v-5.7h-1.8v13h1.8v-5.9h6.6zm10-9c1.8 0 3.3 1.1 3.3 3.1h-6.5c0.2-2 1.5-3.1 3.2-3.1zm4.8 5.8h-1.8c-0.4 1.1-1.4 1.9-2.9 1.9-1.8 0-3.2-1.1-3.3-3.2h8.2c0-0.4 0-0.7 0-1 0-2.9-1.9-5-4.9-5-3 0-5.1 2.1-5.1 5.3 0 3.3 2.2 5.4 5.1 5.4 2.5 0 4.2-1.5 4.7-3.4zm6.6-2.4c0-2.4 1.2-3.1 2.8-3.1h0.5v-1.8c-1.7 0-2.8 0.7-3.3 1.9v-1.7h-1.8v10.3h1.8zm10.6-3.4c1.8 0 3.3 1.1 3.3 3.1h-6.5c0.2-2 1.5-3.1 3.2-3.1zm4.8 5.8h-1.8c-0.4 1.1-1.4 1.9-2.9 1.9-1.8 0-3.2-1.1-3.3-3.2h8.2c0-0.4 0-0.7 0-1 0-2.9-1.9-5-4.9-5-3 0-5.1 2.1-5.1 5.3 0 3.3 2.2 5.4 5.1 5.4 2.5 0 4.2-1.5 4.7-3.4z"/></g></svg>