<svg xmlns="http://www.w3.org/2000/svg" width="157" height="40" viewBox="0 0 157 40" fill="none"><path d="M39.349 35L44.03 12.401H51.067L50.23 21.949L49.548 26.94H49.765L51.098 21.949L54.229 12.401H61.328L56.647 35H52.028L54.353 23.778L55.748 17.733H55.531L53.02 25.359L49.579 35H46.386L46.944 25.39L47.595 17.981H47.378L46.293 23.778L43.968 35H39.349ZM59.4045 35L64.0855 12.401H73.8505L73.0135 16.71H66.7205L68.2085 15.47L64.7985 31.931L63.8065 30.691H70.0375L69.1695 35H59.4045ZM64.8915 25.452L65.7285 21.453H71.4635L70.6265 25.452H64.8915ZM70.7232 35L79.1862 12.401H85.7272L85.0762 35H80.3642L81.3872 19.593L81.6352 16.4H81.4182L80.4572 19.593L75.6522 35H70.7232ZM76.4892 30.908L77.6982 27.064H81.3562L81.0462 30.908H76.4892ZM87.9725 35L91.8785 16.307H96.8385L92.9325 35H87.9725ZM88.8095 16.741L89.7395 12.401H100.714L99.8455 16.741H88.8095ZM98.077 35L102.758 12.401H107.811L103.936 30.939L103.626 30.536H108.183L107.253 35H98.077ZM109.293 35L113.974 12.401H123.739L122.902 16.71H116.609L118.097 15.47L114.687 31.931L113.695 30.691H119.926L119.058 35H109.293ZM114.78 25.452L115.617 21.453H121.352L120.515 25.452H114.78ZM121.326 35L126.007 12.401H131.804C133.003 12.401 133.974 12.5663 134.718 12.897C135.462 13.207 136.041 13.6307 136.454 14.168C136.867 14.7053 137.146 15.2943 137.291 15.935C137.456 16.555 137.529 17.175 137.508 17.795C137.487 18.3943 137.425 18.9317 137.322 19.407C137.053 20.6883 136.537 21.7527 135.772 22.6C135.028 23.4267 134.139 23.9537 133.106 24.181L133.075 24.398C133.716 24.6253 134.191 24.956 134.501 25.39C134.811 25.8033 134.997 26.3097 135.059 26.909C135.121 27.5083 135.059 28.2317 134.873 29.079L134.098 32.768C134.015 33.1813 133.953 33.605 133.912 34.039C133.871 34.4523 133.85 34.7727 133.85 35H128.952C128.931 34.7313 128.931 34.4213 128.952 34.07C128.993 33.7187 129.055 33.3673 129.138 33.016L129.851 29.544C129.996 28.862 130.058 28.335 130.037 27.963C130.016 27.5703 129.923 27.3017 129.758 27.157C129.613 26.9917 129.386 26.909 129.076 26.909H127.402L128.208 23.065H129.696C130.316 23.065 130.853 22.7963 131.308 22.259C131.763 21.7217 132.083 20.988 132.269 20.058C132.352 19.7893 132.414 19.469 132.455 19.097C132.496 18.7043 132.476 18.3323 132.393 17.981C132.331 17.609 132.166 17.3093 131.897 17.082C131.628 16.834 131.215 16.71 130.657 16.71H129.975L126.193 35H121.326ZM142.984 35.31C141.434 35.31 140.205 35.0207 139.295 34.442C138.407 33.8427 137.818 32.9953 137.528 31.9C137.239 30.784 137.229 29.4407 137.497 27.87H141.744C141.641 28.366 141.569 28.9033 141.527 29.482C141.507 30.0607 141.589 30.5567 141.775 30.97C141.982 31.3627 142.385 31.559 142.984 31.559C143.377 31.559 143.697 31.4557 143.945 31.249C144.193 31.0423 144.379 30.753 144.503 30.381C144.648 30.009 144.741 29.5853 144.782 29.11C144.865 28.676 144.875 28.304 144.813 27.994C144.772 27.6633 144.658 27.3533 144.472 27.064C144.307 26.7747 144.069 26.4853 143.759 26.196C143.449 25.886 143.057 25.5347 142.581 25.142C142.085 24.7287 141.62 24.2947 141.186 23.84C140.773 23.3853 140.432 22.8893 140.163 22.352C139.895 21.8147 139.709 21.205 139.605 20.523C139.502 19.841 139.533 19.0763 139.698 18.229C139.905 16.9477 140.287 15.8523 140.845 14.943C141.403 14.0337 142.137 13.331 143.046 12.835C143.956 12.339 145.051 12.091 146.332 12.091C147.758 12.091 148.895 12.3597 149.742 12.897C150.61 13.4343 151.199 14.2197 151.509 15.253C151.819 16.2863 151.84 17.547 151.571 19.035H147.324C147.407 18.601 147.459 18.136 147.479 17.64C147.5 17.1233 147.417 16.6893 147.231 16.338C147.045 15.966 146.715 15.78 146.239 15.78C145.929 15.78 145.65 15.873 145.402 16.059C145.154 16.2243 144.958 16.493 144.813 16.865C144.669 17.237 144.565 17.6917 144.503 18.229C144.421 18.725 144.431 19.159 144.534 19.531C144.658 19.903 144.875 20.2647 145.185 20.616C145.516 20.9673 145.971 21.3807 146.549 21.856C147.087 22.3107 147.583 22.786 148.037 23.282C148.492 23.7573 148.864 24.274 149.153 24.832C149.463 25.39 149.66 26.01 149.742 26.692C149.846 27.3533 149.835 28.087 149.711 28.893C149.463 30.2777 149.06 31.4453 148.502 32.396C147.944 33.3467 147.211 34.07 146.301 34.566C145.392 35.062 144.286 35.31 142.984 35.31Z" fill="white"></path><g clip-path="url(#clip0_199_11)"><path fill-rule="evenodd" clip-rule="evenodd" d="M9.01331 17.9973L3.48094 21.9634L10.0169 24.0274L12.4913 20.763L12.593 17.7888L9.01331 17.9973Z" fill="white"></path><path fill-rule="evenodd" clip-rule="evenodd" d="M28.9882 17.9973L34.5191 21.9634L27.9831 24.0274L25.5087 20.763L25.4085 17.7888L28.9882 17.9973Z" fill="white"></path><path fill-rule="evenodd" clip-rule="evenodd" d="M12.1111 13.4733L4.93108 11.1275L7.97727 0L0 13.5268L11.9386 19.4484L14.3585 18.2551L12.1111 13.4733Z" fill="white"></path><path fill-rule="evenodd" clip-rule="evenodd" d="M25.8889 13.4733L33.0689 11.1275L30.0227 0L38 13.5268L26.0614 19.4484L23.6415 18.2551L25.8889 13.4733Z" fill="white"></path><path fill-rule="evenodd" clip-rule="evenodd" d="M19.0007 15.3641L12.1111 13.4734L12.6549 18.3468L13.5966 20.7461L17.8763 23.037H19.0007H20.1237L24.4034 20.7461L25.3451 18.3468L25.8889 13.4734L19.0007 15.3641Z" fill="white"></path><path fill-rule="evenodd" clip-rule="evenodd" d="M10.6241 21.473L9.40973 26.5817L14.6857 31.3283L17.132 30.4364L16.407 25.7828L13.0351 24.5458L12.3174 22.1465L12.4913 20.7629L10.6241 21.473Z" fill="white"></path><path fill-rule="evenodd" clip-rule="evenodd" d="M19.0007 36.4905L15.6819 37.8726L19.0007 40L22.3181 37.8726L19.0007 36.4905Z" fill="white"></path><path fill-rule="evenodd" clip-rule="evenodd" d="M27.3759 21.473L28.5903 26.5817L23.3158 31.3283L20.868 30.4364L21.593 25.7828L24.9649 24.5458L25.6841 22.1465L25.5087 20.7629L27.3759 21.473Z" fill="white"></path><path fill-rule="evenodd" clip-rule="evenodd" d="M17.8763 23.0369L12.6549 18.3467L10.6241 21.473L16.9331 23.9823L17.8763 23.0369Z" fill="white"></path><path fill-rule="evenodd" clip-rule="evenodd" d="M20.1237 23.0369L25.3451 18.3467L27.3759 21.473L21.0669 23.9823L20.1237 23.0369Z" fill="white"></path><path fill-rule="evenodd" clip-rule="evenodd" d="M19.0007 23.3103L16.407 25.7829L15.0291 30.9817L17.3502 32.8006L19.0007 32.509L20.6498 32.8006L22.971 30.9817L21.593 25.7829L19.0007 23.3103Z" fill="white"></path><path fill-rule="evenodd" clip-rule="evenodd" d="M19.0007 31.6734L15.791 30.3279L13.5789 32.3271L15.8632 35.2731L13.6511 35.5633L14.9937 37.2723L19.0007 35.7451L23.0063 37.2723L24.3489 35.5633L22.1368 35.2731L24.4211 32.3271L22.209 30.3279L19.0007 31.6734Z" fill="white"></path><path opacity="0.3" fill-rule="evenodd" clip-rule="evenodd" d="M15.8632 35.2732L13.6511 35.5634L14.9937 37.2724L19.0007 35.7451L23.0063 37.2724L24.3489 35.5634L22.1368 35.2732L24.4211 32.3271L21.2909 35.3915L21.6534 35.9734L19.0007 35.5197L16.3466 35.9734L16.7091 35.3915L13.5789 32.3271L15.8632 35.2732Z" fill="white"></path></g><defs><clipPath id="clip0_199_11"><rect width="38" height="40" fill="white"></rect></clipPath></defs></svg>